<?xml version="1.0" encoding="UTF-8" standalone="no"?>
<!DOCTYPE svg PUBLIC "-//W3C//DTD SVG 1.1//EN" "http://www.w3.org/Graphics/SVG/1.1/DTD/svg11.dtd">
<svg width="100%" height="100%" viewBox="0 0 1776 1149" version="1.1" xmlns="http://www.w3.org/2000/svg" xmlns:xlink="http://www.w3.org/1999/xlink" xml:space="preserve" xmlns:serif="http://www.serif.com/" style="fill-rule:evenodd;clip-rule:evenodd;stroke-linecap:round;stroke-linejoin:round;stroke-miterlimit:1.5;">
    <rect id="stereo-in-headphones" x="0.879" y="0.457" width="1774.46" height="1148.18" style="fill:none;"/>
    <g id="Board">
        <rect id="Base" x="792.957" y="172.402" width="193.13" height="827.191" style="fill:none;stroke:rgb(12,12,12);stroke-width:4.17px;"/>
        <g id="Silk">
            <path d="M972.993,979.526c-3.288,0.222 -4.672,2.402 -5.408,4.7c-0.647,2.02 -1.372,4.105 -2.162,5.177c-0.438,0.595 -0.925,0.901 -1.4,0.901c-0.471,-0 -0.816,-0.249 -1.038,-0.716c-0.336,-0.71 -0.328,-2.101 -0.238,-3.493c0.07,-1.093 0.177,-2.186 0.13,-2.885c-0.007,-0.101 -0.028,-0.216 -0.047,-0.301c-0.04,0.021 -0.081,0.049 -0.123,0.081c-0.155,0.117 -0.308,0.286 -0.463,0.488c-0.539,0.699 -1.072,1.76 -1.576,2.68c-0.43,0.785 -0.848,1.473 -1.221,1.818c-0.254,0.235 -0.511,0.34 -0.741,0.34c-0.436,-0 -0.749,-0.266 -0.87,-0.82c-0.154,-0.708 0.061,-2.098 0.314,-3.486c0.2,-1.1 0.416,-2.199 0.424,-2.903c0.001,-0.09 -0.009,-0.191 -0.02,-0.27c-0.059,0.036 -0.119,0.088 -0.184,0.148c-0.194,0.179 -0.387,0.438 -0.583,0.748c-0.652,1.031 -1.301,2.591 -1.893,3.948c-0.488,1.115 -0.944,2.097 -1.326,2.588c-0.275,0.353 -0.568,0.495 -0.798,0.495c-0.435,-0 -0.734,-0.226 -0.905,-0.648c-0.235,-0.578 -0.147,-1.712 0.019,-2.846c0.104,-0.704 0.228,-1.407 0.28,-1.949c0.013,-0.133 0.015,-0.283 0.013,-0.404c-0.039,0.019 -0.081,0.04 -0.125,0.063c-0.36,0.181 -0.821,0.473 -1.346,0.797c-0.919,0.566 -2.021,1.214 -3.113,1.598c-0.223,0.881 -0.582,1.718 -1.055,2.371c-0.629,0.867 -1.458,1.414 -2.423,1.414c-0.849,-0 -1.377,-0.431 -1.713,-1.044c-0.282,-0.516 -0.414,-1.177 -0.495,-1.767c-0.036,-0.266 -0.085,-0.583 -0.119,-0.8c-0.174,0.075 -0.408,0.178 -0.618,0.278c-0.371,0.175 -0.803,0.369 -1.267,0.526c-0.196,0.92 -0.531,1.797 -0.983,2.477c-0.595,0.897 -1.391,1.457 -2.31,1.457c-0.816,-0 -1.351,-0.454 -1.697,-1.116c-0.287,-0.55 -0.434,-1.256 -0.525,-1.884c-0.039,-0.269 -0.068,-0.521 -0.097,-0.736c-0.111,0.128 -0.229,0.279 -0.355,0.438c-0.374,0.472 -0.809,1.01 -1.298,1.368c-0.387,0.285 -0.809,0.46 -1.256,0.46c-0.805,0 -1.432,-0.391 -1.89,-1.07c-0.377,-0.558 -0.634,-1.331 -0.777,-2.224c-0.658,0.48 -1.387,0.896 -2.101,1.275c-0.003,0.093 -0.009,0.186 -0.018,0.279c-0.096,0.994 -0.571,2.083 -1.179,2.796c-0.47,0.55 -1.029,0.872 -1.552,0.872c-0.273,0 -0.591,-0.106 -0.87,-0.309c-0.398,-0.291 -0.712,-0.773 -0.712,-1.347c0,-0.578 0.437,-1.136 1.211,-1.645c0.579,-0.382 1.359,-0.76 2.185,-1.184c-0.051,-0.56 -0.221,-1.1 -0.493,-1.493c-0.205,-0.294 -0.467,-0.505 -0.798,-0.505c-1.025,-0 -1.705,0.594 -2.194,1.344c-0.547,0.841 -0.862,1.879 -1.101,2.655c-0.166,0.54 -0.309,0.969 -0.445,1.179c-0.164,0.256 -0.372,0.337 -0.548,0.337c-0.094,0 -0.195,-0.024 -0.294,-0.099c-0.062,-0.046 -0.168,-0.162 -0.239,-0.383c-0.11,-0.344 -0.246,-1.195 -0.357,-2.335c-0.439,0.703 -0.872,1.345 -1.277,1.894c-0.646,0.873 -1.234,1.515 -1.679,1.826c-0.278,0.194 -0.529,0.275 -0.725,0.275c-0.859,-0 -1.341,-0.603 -1.489,-1.613c-0.168,-1.141 0.1,-2.868 0.36,-4.369c0.133,-0.762 0.26,-1.464 0.315,-1.987c0.015,-0.142 0.018,-0.299 0.017,-0.418c-0.396,0.033 -0.828,0.127 -1.266,0.222c-0.292,1.596 -1.186,3.507 -2.354,4.887c-0.986,1.166 -2.172,1.941 -3.334,1.941c-1.407,0 -2.425,-0.549 -3.117,-1.393c-0.875,0.732 -1.844,1.187 -2.808,1.187c-1.017,0 -1.863,-0.773 -2.449,-2.103c-0.192,-0.438 -0.359,-0.938 -0.501,-1.484c-0.455,0.919 -0.914,1.753 -1.358,2.452c-0.53,0.834 -1.045,1.481 -1.503,1.868c-0.392,0.331 -0.766,0.484 -1.087,0.484c-0.697,0 -1.191,-0.473 -1.465,-1.323c-0.311,-0.962 -0.352,-2.466 -0.336,-3.97c0.015,-1.423 0.077,-2.847 -0.042,-3.759c-0.027,-0.205 -0.062,-0.38 -0.114,-0.515c-0.008,-0.022 -0.021,-0.048 -0.033,-0.07c-0.03,0.019 -0.057,0.05 -0.09,0.082c-0.128,0.121 -0.251,0.299 -0.377,0.514c-0.444,0.759 -0.879,1.945 -1.307,3.13c-0.527,1.458 -1.048,2.912 -1.545,3.655c-0.32,0.479 -0.684,0.697 -0.994,0.697c-0.357,-0 -0.664,-0.219 -0.838,-0.699c-0.223,-0.614 -0.238,-1.818 -0.229,-3.022c0.006,-0.944 0.021,-1.889 -0.09,-2.493c-0.018,-0.101 -0.059,-0.219 -0.085,-0.289c-0.211,0.045 -0.388,0.228 -0.57,0.458c-0.451,0.574 -0.843,1.472 -1.258,2.368c-0.453,0.977 -0.933,1.949 -1.503,2.575c-0.458,0.503 -0.98,0.796 -1.571,0.796c-0.941,-0 -1.448,-0.668 -1.566,-1.845c-0.134,-1.35 0.248,-3.459 0.615,-5.568c0.132,-0.757 0.263,-1.514 0.362,-2.232c-0.17,0.033 -0.346,0.05 -0.529,0.05c-1.918,-0 -2.505,-1.794 -2.143,-3.261c0.251,-1.017 0.965,-1.812 1.88,-1.812c1.049,0 1.614,0.669 1.809,1.813c0.07,0.412 0.088,0.894 0.069,1.424c0.064,-0.088 0.124,-0.181 0.182,-0.278c0.465,-0.792 0.71,-1.849 0.742,-2.904c0.031,-1.053 -0.148,-2.108 -0.557,-2.898c-0.357,-0.689 -0.891,-1.171 -1.639,-1.171c-1.252,-0 -2.294,0.747 -3.099,1.913c-1.303,1.886 -1.986,4.849 -1.878,7.853c0.139,3.871 0.971,7.816 0.516,9.834c-0.144,0.642 -0.417,1.116 -0.818,1.401c-0.284,0.202 -0.637,0.317 -1.075,0.317c-0.757,0 -1.415,-0.466 -1.956,-1.23c-0.686,-0.971 -1.201,-2.437 -1.613,-3.715c-0.259,-0.803 -0.477,-1.526 -0.679,-1.976c-0.008,-0.017 -0.017,-0.036 -0.026,-0.055l-0.023,0.033c-0.242,0.362 -0.514,0.945 -0.812,1.591c-0.563,1.22 -1.213,2.647 -1.884,3.397c-0.383,0.429 -0.794,0.653 -1.187,0.653c-0.461,-0 -0.859,-0.314 -1.094,-0.99c-0.363,-1.044 -0.398,-3.137 -0.373,-5.508c0.031,-2.929 0.14,-6.298 -0.292,-8.525c-0.132,-0.679 -0.31,-1.245 -0.572,-1.639c-0.194,-0.292 -0.433,-0.475 -0.753,-0.475c-0.554,-0 -0.939,0.476 -1.25,1.115c-0.573,1.177 -0.817,2.938 -0.789,4.382c0.045,2.394 0.856,3.916 0.856,3.916c0.12,0.224 0.036,0.503 -0.188,0.624c-0.223,0.12 -0.503,0.036 -0.624,-0.187c0,-0 -0.915,-1.682 -0.965,-4.335c-0.031,-1.583 0.253,-3.513 0.882,-4.804c0.49,-1.007 1.204,-1.632 2.078,-1.632c0.976,-0 1.668,0.77 2.053,2.116c0.48,1.677 0.536,4.296 0.515,6.917c-0.024,2.955 -0.147,5.912 0.203,7.419c0.05,0.215 0.109,0.396 0.184,0.534c0.041,0.076 0.063,0.151 0.129,0.151c0.096,-0 0.185,-0.058 0.279,-0.133c0.158,-0.125 0.312,-0.306 0.465,-0.521c0.533,-0.747 1.037,-1.878 1.49,-2.861c0.382,-0.827 0.735,-1.555 1.031,-1.919c0.236,-0.292 0.49,-0.403 0.69,-0.403c0.185,0 0.407,0.091 0.596,0.358c0.19,0.268 0.399,0.814 0.624,1.502c0.402,1.23 0.892,2.955 1.605,4.136c0.39,0.646 0.821,1.143 1.4,1.143c0.444,0 0.715,-0.223 0.873,-0.605c0.14,-0.337 0.206,-0.772 0.23,-1.281c0.104,-2.131 -0.53,-5.447 -0.647,-8.712c-0.115,-3.22 0.644,-6.388 2.041,-8.41c0.994,-1.439 2.311,-2.31 3.857,-2.31c0.894,-0 1.605,0.429 2.124,1.131c0.698,0.944 1.037,2.413 0.992,3.887c-0.044,1.47 -0.469,2.935 -1.237,3.876c-0.214,0.262 -0.454,0.485 -0.719,0.662c-0.104,0.884 -0.262,1.838 -0.428,2.792c-0.351,2.015 -0.734,4.029 -0.606,5.319c0.058,0.586 0.18,1.014 0.649,1.014c0.448,0 0.795,-0.335 1.124,-0.782c0.412,-0.56 0.768,-1.308 1.114,-2.055c0.449,-0.967 0.884,-1.93 1.371,-2.549c0.415,-0.528 0.885,-0.822 1.395,-0.822c0.34,0 0.646,0.219 0.806,0.716c0.197,0.611 0.196,1.808 0.188,3.005c-0.007,0.94 -0.014,1.88 0.113,2.481c0.018,0.084 0.054,0.181 0.082,0.251c0.008,-0.006 0.014,-0.013 0.02,-0.019c0.115,-0.123 0.228,-0.301 0.345,-0.519c0.409,-0.762 0.828,-1.953 1.259,-3.144c0.529,-1.465 1.081,-2.926 1.632,-3.673c0.34,-0.46 0.717,-0.679 1.061,-0.679c0.356,0 0.661,0.209 0.841,0.68c0.231,0.604 0.257,1.814 0.238,3.186c-0.024,1.632 -0.097,3.509 0.175,4.75c0.063,0.286 0.143,0.535 0.253,0.728c0.105,0.183 0.234,0.311 0.43,0.311c0.151,0 0.308,-0.111 0.493,-0.267c0.405,-0.342 0.851,-0.921 1.319,-1.658c0.598,-0.941 1.224,-2.134 1.827,-3.446c-0.209,-1.294 -0.309,-2.736 -0.301,-4.178c0.007,-1.078 0.073,-2.157 0.196,-3.173c-2.601,0.144 -3.896,0.37 -3.896,0.37c-0.2,0.035 -0.392,-0.099 -0.427,-0.299c-0.035,-0.201 0.1,-0.392 0.3,-0.427c-0,0 1.371,-0.24 4.125,-0.388c0.256,-1.663 0.67,-3.107 1.223,-4.037c0.501,-0.843 1.134,-1.293 1.825,-1.293c0.594,-0 1.009,0.366 1.184,1.1c0.182,0.758 0.087,2.008 -0.229,3.515c-0.042,0.197 -0.087,0.398 -0.135,0.604c1.746,-0.011 3.78,0.025 6.102,0.138c0.203,0.01 0.36,0.183 0.35,0.386c-0.01,0.203 -0.183,0.36 -0.386,0.35c-2.393,-0.117 -4.476,-0.15 -6.25,-0.135c-0.621,2.374 -1.631,5.163 -2.729,7.593c0.167,0.942 0.4,1.789 0.702,2.475c0.405,0.921 0.901,1.553 1.605,1.553c0.798,0 1.584,-0.417 2.3,-1.041c-0.662,-1.272 -0.817,-2.911 -0.602,-4.381c0.171,-1.163 0.572,-2.206 1.101,-2.857c0.424,-0.522 0.937,-0.808 1.481,-0.808c0.587,0 1.024,0.187 1.337,0.491c0.438,0.425 0.641,1.114 0.595,1.958c-0.092,1.687 -1.172,4.054 -2.673,5.674l-0.063,0.067c0.539,0.67 1.334,1.103 2.449,1.103c0.787,0 1.563,-0.496 2.264,-1.211c1.141,-1.164 2.063,-2.926 2.434,-4.458l0.011,-0.046c-0.23,0.034 -0.454,0.056 -0.668,0.056c-1.459,-0 -2.029,-1.284 -1.797,-2.319c0.162,-0.725 0.704,-1.315 1.569,-1.315c0.586,0 1.025,0.19 1.344,0.5c0.434,0.423 0.649,1.106 0.632,1.943c0.508,-0.11 1.005,-0.213 1.444,-0.213c0.238,0 0.431,0.109 0.552,0.361c0.067,0.141 0.109,0.377 0.098,0.692c-0.019,0.556 -0.181,1.45 -0.353,2.443c-0.243,1.402 -0.514,3.013 -0.357,4.078c0.068,0.464 0.183,0.826 0.578,0.826c0.023,-0 0.047,-0.018 0.077,-0.034c0.084,-0.044 0.175,-0.111 0.275,-0.195c0.369,-0.309 0.817,-0.832 1.311,-1.499c0.594,-0.804 1.248,-1.812 1.895,-2.921c-0.196,-3.247 -0.135,-7.66 0.797,-10.103c0.5,-1.31 1.274,-2.077 2.277,-2.077c0.48,-0 0.848,0.142 1.125,0.383c0.269,0.234 0.457,0.569 0.553,1c0.155,0.696 0.064,1.68 -0.228,2.826c-0.607,2.391 -2.068,5.543 -3.587,8.187c0.007,0.102 0.014,0.203 0.021,0.302c0.056,0.769 0.125,1.451 0.197,1.993c0.257,-0.833 0.606,-1.91 1.18,-2.792c0.655,-1.006 1.592,-1.764 2.966,-1.764c0.629,0 1.165,0.341 1.554,0.902c0.293,0.421 0.5,0.973 0.602,1.561c0.723,-0.395 1.44,-0.837 2.056,-1.354c-0.011,-0.175 -0.017,-0.352 -0.02,-0.532c-0.046,-2.644 0.666,-5.748 1.777,-7.374c0.561,-0.822 1.24,-1.281 1.95,-1.281c0.412,-0 0.724,0.131 0.956,0.347c0.31,0.291 0.483,0.767 0.474,1.39c-0.025,1.887 -1.744,5.391 -4.031,7.685c-0.05,0.051 -0.102,0.1 -0.154,0.15c0.075,0.771 0.231,1.466 0.487,2.013c0.294,0.627 0.718,1.049 1.343,1.049c0.332,-0 0.627,-0.193 0.903,-0.436c0.346,-0.304 0.654,-0.696 0.928,-1.043c0.303,-0.382 0.575,-0.713 0.804,-0.881c0.183,-0.135 0.361,-0.191 0.518,-0.191c0.158,-0 0.316,0.06 0.441,0.234c0.046,0.066 0.095,0.164 0.131,0.297c0.046,0.17 0.082,0.43 0.121,0.74c0.07,0.557 0.155,1.301 0.399,1.905c0.185,0.458 0.461,0.844 0.983,0.844c0.627,0 1.137,-0.432 1.543,-1.044c0.319,-0.481 0.57,-1.074 0.743,-1.71c-0.23,0.038 -0.462,0.06 -0.693,0.06c-2.338,-0 -3.215,-2.094 -2.895,-3.785c0.224,-1.183 1.029,-2.134 2.249,-2.134c1.607,-0 2.46,1.538 2.536,3.474c0.014,0.355 0.003,0.722 -0.032,1.09c0.404,-0.165 0.769,-0.348 1.065,-0.489c0.413,-0.197 0.737,-0.311 0.907,-0.311c0.197,-0 0.384,0.085 0.516,0.318c0.09,0.16 0.157,0.482 0.208,0.889c0.063,0.512 0.126,1.196 0.357,1.75c0.176,0.422 0.461,0.766 1.001,0.766c0.678,-0 1.236,-0.425 1.678,-1.034c0.319,-0.441 0.577,-0.978 0.766,-1.555c-0.233,0.039 -0.463,0.061 -0.687,0.061c-2.324,-0 -3.258,-2.098 -2.894,-3.786c0.251,-1.163 1.101,-2.117 2.489,-2.117c1.549,-0 2.364,1.513 2.389,3.422c0.004,0.356 -0.018,0.725 -0.065,1.096c0.858,-0.365 1.705,-0.885 2.432,-1.333c0.649,-0.401 1.21,-0.753 1.611,-0.929c0.24,-0.105 0.442,-0.153 0.593,-0.153c0.302,-0 0.56,0.17 0.649,0.604c0.077,0.381 -0.012,1.148 -0.146,2.014c-0.152,0.988 -0.351,2.122 -0.285,2.873c0.01,0.119 0.027,0.226 0.056,0.317c0.012,0.038 0.014,0.079 0.03,0.103c0.032,-0.031 0.078,-0.077 0.11,-0.119c0.093,-0.119 0.19,-0.274 0.292,-0.455c0.425,-0.755 0.912,-1.937 1.431,-3.117c0.635,-1.446 1.323,-2.888 1.987,-3.625c0.383,-0.426 0.785,-0.637 1.155,-0.637c0.271,-0 0.478,0.121 0.621,0.364c0.107,0.183 0.173,0.487 0.168,0.884c-0.008,0.741 -0.228,1.9 -0.439,3.058c-0.198,1.088 -0.391,2.175 -0.351,2.871c0.006,0.104 0.033,0.225 0.054,0.304c0.021,-0.016 0.044,-0.033 0.062,-0.049c0.081,-0.076 0.164,-0.174 0.25,-0.289c0.381,-0.509 0.793,-1.306 1.224,-2.101c0.461,-0.851 0.943,-1.698 1.422,-2.243c0.414,-0.471 0.853,-0.723 1.261,-0.723c0.316,-0 0.59,0.182 0.724,0.621c0.144,0.472 0.114,1.418 0.04,2.489c-0.086,1.249 -0.219,2.685 -0.064,3.634c0.033,0.207 0.079,0.387 0.151,0.527c0.046,0.092 0.098,0.166 0.194,0.166c0.134,0 0.254,-0.086 0.381,-0.204c0.197,-0.185 0.386,-0.455 0.574,-0.782c0.628,-1.096 1.2,-2.799 1.73,-4.451c0.861,-2.689 2.525,-5.208 6.484,-5.352l0.053,-0.246c0.023,-0.11 0.131,-0.18 0.241,-0.156l0.245,0.052c0.11,0.023 0.18,0.131 0.157,0.241l-0.044,0.204c0.003,0.001 0.005,0.003 0.007,0.005l0.192,0.038l0.046,-0.214c0.032,-0.151 0.181,-0.248 0.332,-0.216l0.345,0.074c0.151,0.032 0.248,0.181 0.215,0.332l-0.042,0.201l0.182,0.036l0.04,-0.204c0.035,-0.175 0.203,-0.291 0.38,-0.261l3.111,0.535c0.182,0.032 0.303,0.207 0.268,0.389l-0.01,0.049l0.022,0.004c0.092,0.018 0.159,0.091 0.173,0.178l2.745,0.541c0.126,0.024 0.225,0.107 0.276,0.215l0.932,0.11l0.26,0.347l-0.06,0.306l-0.373,0.222l-0.902,-0.253c-0.088,0.081 -0.212,0.121 -0.339,0.096l-2.744,-0.54c-0.047,0.074 -0.136,0.116 -0.228,0.098l-0.022,-0.004l-0.01,0.049c-0.035,0.182 -0.214,0.298 -0.395,0.258l-3.081,-0.685c-0.175,-0.039 -0.287,-0.21 -0.252,-0.386l0.039,-0.202l-0.196,-0.039l-0.045,0.214c-0.033,0.151 -0.182,0.248 -0.333,0.216l-0.344,-0.074c-0.152,-0.032 -0.248,-0.181 -0.216,-0.332l0.043,-0.201l-0.2,-0.039l-0.046,0.218c-0.024,0.11 -0.132,0.18 -0.241,0.156l-0.246,-0.052c-0.11,-0.024 -0.18,-0.132 -0.157,-0.241l0.023,-0.106Zm-46.36,7.782c-0.347,0.179 -0.68,0.351 -0.986,0.52c-0.454,0.251 -0.845,0.492 -1.12,0.744c-0.185,0.17 -0.322,0.328 -0.322,0.517c-0,0.26 0.154,0.471 0.334,0.603c0.106,0.078 0.222,0.132 0.326,0.132c0.298,0 0.584,-0.236 0.851,-0.549c0.433,-0.507 0.782,-1.248 0.917,-1.967Zm-20.798,-0.537c0.981,-1.103 1.755,-2.549 2.11,-3.831c0.174,-0.628 0.249,-1.214 0.182,-1.692c-0.04,-0.285 -0.128,-0.527 -0.298,-0.692c-0.161,-0.156 -0.394,-0.231 -0.696,-0.231c-0.29,0 -0.54,0.19 -0.766,0.468c-0.445,0.547 -0.761,1.432 -0.904,2.41c-0.172,1.176 -0.095,2.509 0.372,3.568Zm34.263,-1.135c0.067,-0.463 0.093,-0.929 0.075,-1.374c-0.029,-0.739 -0.176,-1.42 -0.48,-1.913c-0.253,-0.411 -0.624,-0.676 -1.136,-0.676c-0.759,-0 -1.204,0.648 -1.344,1.384c-0.225,1.188 0.347,2.693 1.99,2.693c0.3,-0 0.601,-0.044 0.895,-0.114Zm7.711,-0.972c0.089,-0.479 0.131,-0.962 0.126,-1.422c-0.01,-0.721 -0.136,-1.384 -0.417,-1.865c-0.23,-0.393 -0.572,-0.648 -1.051,-0.648c-0.896,-0 -1.426,0.639 -1.588,1.39c-0.255,1.181 0.368,2.671 1.993,2.671c0.304,-0 0.619,-0.046 0.937,-0.126Zm-26.871,-0.803c1.206,-2.26 2.286,-4.726 2.781,-6.674c0.247,-0.974 0.353,-1.808 0.221,-2.399c-0.048,-0.213 -0.124,-0.389 -0.258,-0.505c-0.127,-0.11 -0.301,-0.157 -0.521,-0.157c-0.667,0 -1.084,0.612 -1.417,1.484c-0.762,1.998 -0.9,5.366 -0.806,8.251Zm9.561,-0.298c1.607,-1.785 2.86,-4.137 3.219,-5.804c0.094,-0.434 0.127,-0.815 0.074,-1.117c-0.026,-0.15 -0.07,-0.277 -0.159,-0.36c-0.077,-0.073 -0.188,-0.099 -0.326,-0.099c-0.276,-0 -0.53,0.146 -0.77,0.375c-0.303,0.288 -0.575,0.703 -0.819,1.201c-0.745,1.519 -1.203,3.777 -1.219,5.804Zm-28.18,-6.681c-0.686,0.013 -1.319,0.033 -1.9,0.058c-0.13,1.027 -0.198,2.126 -0.204,3.225c-0.005,0.851 0.027,1.702 0.1,2.521c0.799,-1.928 1.513,-3.981 2.004,-5.804Zm11.318,5.154c0.019,-0.269 0.013,-0.521 -0.024,-0.749c-0.048,-0.298 -0.144,-0.551 -0.321,-0.723c-0.164,-0.16 -0.398,-0.239 -0.701,-0.239c-0.379,0 -0.599,0.278 -0.671,0.595c-0.118,0.528 0.155,1.196 0.899,1.196c0.261,0 0.537,-0.032 0.818,-0.08Zm-30.6,-3.909c0.074,-0.787 0.087,-1.496 -0.009,-2.063c-0.105,-0.617 -0.336,-1.047 -0.901,-1.047c-0.521,0 -0.843,0.533 -0.985,1.112c-0.229,0.924 0.039,2.119 1.248,2.119c0.233,-0 0.448,-0.043 0.647,-0.121Zm19.472,-1.985c0.067,-0.275 0.128,-0.544 0.183,-0.804c0.28,-1.335 0.396,-2.44 0.236,-3.112c-0.053,-0.221 -0.11,-0.393 -0.289,-0.393c-0.248,-0 -0.466,0.135 -0.67,0.349c-0.268,0.282 -0.5,0.692 -0.707,1.193c-0.316,0.77 -0.563,1.743 -0.737,2.823c0.607,-0.025 1.268,-0.044 1.984,-0.056Z" style="fill:rgb(131,133,136);"/>
            <path d="M836.596,218.04c0.037,-0.183 0.055,-0.348 0.055,-0.494c-0,-0.477 -0.171,-0.864 -0.513,-1.163c-0.342,-0.299 -0.867,-0.449 -1.575,-0.449c-0.281,-0 -0.555,0.03 -0.824,0.092c-0.269,0.061 -0.507,0.155 -0.714,0.283c-0.208,0.129 -0.373,0.29 -0.495,0.486c-0.122,0.195 -0.183,0.421 -0.183,0.677c0,0.428 0.18,0.763 0.54,1.008c0.361,0.244 0.944,0.433 1.749,0.567c1.136,0.183 2.03,0.547 2.683,1.09c0.654,0.543 0.98,1.334 0.98,2.372c0,0.695 -0.125,1.318 -0.375,1.867c-0.25,0.55 -0.605,1.02 -1.062,1.411c-0.458,0.39 -1.011,0.689 -1.658,0.897c-0.647,0.208 -1.373,0.311 -2.179,0.311c-0.77,0 -1.441,-0.1 -2.015,-0.302c-0.574,-0.201 -1.047,-0.476 -1.419,-0.824c-0.373,-0.348 -0.65,-0.754 -0.834,-1.218c-0.183,-0.464 -0.274,-0.964 -0.274,-1.502c-0,-0.158 0.006,-0.317 0.018,-0.476c0.012,-0.158 0.037,-0.323 0.073,-0.494l0.092,-0.421l2.417,-0l-0.073,0.311c-0.049,0.232 -0.073,0.494 -0.073,0.787c-0,0.587 0.186,1.044 0.558,1.374c0.373,0.33 0.931,0.494 1.676,0.494c0.806,0 1.435,-0.167 1.887,-0.503c0.451,-0.336 0.677,-0.797 0.677,-1.383c0,-0.464 -0.192,-0.824 -0.577,-1.08c-0.384,-0.257 -1.028,-0.452 -1.932,-0.586c-0.427,-0.061 -0.845,-0.171 -1.254,-0.33c-0.409,-0.159 -0.773,-0.378 -1.09,-0.659c-0.318,-0.281 -0.574,-0.626 -0.769,-1.035c-0.196,-0.409 -0.293,-0.894 -0.293,-1.456c-0,-0.574 0.106,-1.108 0.32,-1.602c0.214,-0.495 0.531,-0.922 0.953,-1.282c0.421,-0.36 0.94,-0.641 1.556,-0.843c0.617,-0.201 1.328,-0.302 2.134,-0.302c0.684,0 1.294,0.086 1.831,0.256c0.538,0.171 0.992,0.409 1.365,0.715c0.372,0.305 0.656,0.668 0.851,1.089c0.196,0.422 0.293,0.876 0.293,1.365c0,0.134 -0.006,0.268 -0.018,0.403c-0.012,0.134 -0.036,0.287 -0.073,0.457l-0.073,0.33l-2.418,0l0.055,-0.238Z" style="fill:rgb(131,133,136);fill-rule:nonzero;"/>
            <path d="M841.651,230.402l-2.308,-0l2.253,-10.567l-0.183,-0.128l-0.843,0.622l-1.19,-1.648l0.989,-0.733c0.256,-0.183 0.522,-0.32 0.797,-0.412c0.274,-0.091 0.54,-0.137 0.796,-0.137c0.489,0 0.916,0.14 1.282,0.421c0.367,0.281 0.592,0.666 0.678,1.154l0.33,0c0.598,-1.05 1.575,-1.575 2.93,-1.575c0.415,0 0.812,0.079 1.19,0.238c0.379,0.159 0.712,0.391 0.998,0.696c0.287,0.305 0.513,0.681 0.678,1.126c0.165,0.446 0.247,0.956 0.247,1.529c0,0.721 -0.088,1.441 -0.265,2.161c-0.177,0.721 -0.455,1.365 -0.834,1.933c-0.378,0.567 -0.863,1.028 -1.456,1.382c-0.592,0.354 -1.303,0.531 -2.133,0.531c-0.391,0 -0.733,-0.045 -1.026,-0.137c-0.293,-0.092 -0.543,-0.211 -0.751,-0.357c-0.207,-0.147 -0.378,-0.315 -0.513,-0.504c-0.134,-0.189 -0.225,-0.381 -0.274,-0.577l-0.33,0l-1.062,4.982Zm3.516,-5.604c0.452,-0 0.849,-0.083 1.191,-0.248c0.342,-0.164 0.625,-0.393 0.851,-0.686c0.226,-0.293 0.394,-0.641 0.504,-1.044c0.11,-0.403 0.165,-0.843 0.165,-1.319c-0,-0.513 -0.165,-0.958 -0.495,-1.337c-0.329,-0.378 -0.787,-0.567 -1.373,-0.567c-0.415,-0 -0.788,0.082 -1.117,0.247c-0.33,0.165 -0.611,0.394 -0.843,0.687c-0.232,0.293 -0.412,0.641 -0.54,1.044c-0.128,0.402 -0.193,0.842 -0.193,1.318c0,0.574 0.165,1.035 0.495,1.383c0.33,0.348 0.781,0.522 1.355,0.522Z" style="fill:rgb(131,133,136);fill-rule:nonzero;"/>
            <path d="M853.665,222.948c-0.024,0.098 -0.036,0.201 -0.036,0.311c-0,0.44 0.167,0.806 0.503,1.099c0.336,0.293 0.779,0.44 1.328,0.44c0.574,-0 1.032,-0.104 1.374,-0.312c0.342,-0.207 0.604,-0.451 0.787,-0.732l1.832,1.154c-0.147,0.244 -0.339,0.488 -0.577,0.732c-0.238,0.244 -0.531,0.467 -0.879,0.669c-0.348,0.201 -0.757,0.366 -1.227,0.494c-0.471,0.128 -1.017,0.192 -1.64,0.192c-0.561,0 -1.077,-0.088 -1.547,-0.265c-0.47,-0.177 -0.873,-0.421 -1.209,-0.733c-0.336,-0.311 -0.598,-0.683 -0.787,-1.117c-0.19,-0.433 -0.284,-0.913 -0.284,-1.437c-0,-0.831 0.125,-1.612 0.375,-2.345c0.25,-0.732 0.614,-1.373 1.09,-1.923c0.476,-0.549 1.062,-0.982 1.758,-1.3c0.696,-0.317 1.496,-0.476 2.399,-0.476c0.635,0 1.188,0.101 1.658,0.302c0.47,0.202 0.857,0.47 1.163,0.806c0.305,0.336 0.534,0.717 0.686,1.145c0.153,0.427 0.229,0.866 0.229,1.318c0,0.147 -0.009,0.296 -0.027,0.449c-0.018,0.152 -0.052,0.351 -0.101,0.595l-0.201,0.934l-6.667,0Zm2.894,-3.461c-0.574,-0 -1.071,0.143 -1.493,0.43c-0.421,0.287 -0.735,0.638 -0.943,1.053l4.286,0c-0,-0.464 -0.144,-0.827 -0.431,-1.089c-0.287,-0.263 -0.76,-0.394 -1.419,-0.394Z" style="fill:rgb(131,133,136);fill-rule:nonzero;"/>
            <path d="M870.625,224.56l0.183,0.128l0.879,-0.623l1.154,1.722l-1.081,0.732c-0.476,0.318 -0.977,0.476 -1.502,0.476c-0.464,0 -0.879,-0.128 -1.245,-0.384c-0.366,-0.257 -0.598,-0.617 -0.696,-1.081l-0.33,0c-0.11,0.208 -0.238,0.4 -0.384,0.577c-0.147,0.177 -0.327,0.33 -0.541,0.458c-0.213,0.128 -0.464,0.232 -0.751,0.311c-0.286,0.08 -0.625,0.119 -1.016,0.119c-0.476,0 -0.916,-0.094 -1.319,-0.284c-0.403,-0.189 -0.754,-0.451 -1.053,-0.787c-0.299,-0.336 -0.534,-0.729 -0.705,-1.181c-0.171,-0.452 -0.256,-0.946 -0.256,-1.484c-0,-0.818 0.11,-1.581 0.329,-2.289c0.22,-0.708 0.538,-1.328 0.953,-1.859c0.415,-0.531 0.925,-0.949 1.529,-1.254c0.604,-0.305 1.285,-0.458 2.042,-0.458c0.672,0 1.203,0.134 1.593,0.403c0.391,0.269 0.654,0.623 0.788,1.062l0.33,0l0.256,-1.209l2.308,0l-1.465,6.905Zm-4.433,0.238c0.44,-0 0.831,-0.089 1.173,-0.266c0.341,-0.177 0.625,-0.412 0.851,-0.705c0.226,-0.293 0.4,-0.638 0.522,-1.035c0.122,-0.396 0.183,-0.815 0.183,-1.254c0,-0.574 -0.165,-1.041 -0.494,-1.401c-0.33,-0.36 -0.769,-0.54 -1.319,-0.54c-0.439,-0 -0.83,0.088 -1.172,0.265c-0.342,0.177 -0.629,0.412 -0.861,0.705c-0.232,0.293 -0.409,0.638 -0.531,1.035c-0.122,0.397 -0.183,0.815 -0.183,1.254c-0,0.513 0.15,0.965 0.449,1.356c0.299,0.39 0.76,0.586 1.382,0.586Z" style="fill:rgb(131,133,136);fill-rule:nonzero;"/>
            <path d="M873.5,226.739l2.784,-13.076l2.307,0l-1.556,7.325l0.439,0l3.681,-3.589l1.429,1.538l-3.37,3.15l0,0.33l1.465,2.417l0.22,0l1.007,-0.696l1.117,1.612l-0.824,0.623c-0.305,0.232 -0.601,0.393 -0.888,0.485c-0.287,0.092 -0.565,0.137 -0.833,0.137c-0.391,0 -0.745,-0.094 -1.062,-0.284c-0.318,-0.189 -0.58,-0.46 -0.788,-0.814l-1.648,-2.711l-0.422,0l-0.75,3.553l-2.308,-0Z" style="fill:rgb(131,133,136);fill-rule:nonzero;"/>
            <path d="M899.47,219.853l-2.564,0l-0,-2.198l3.04,0l0.843,-3.992l2.307,0l-0.842,3.992l3.15,0l-0,2.198l-3.626,0l-1.026,4.707l0.183,0.128l2.454,-1.685l1.154,1.721l-2.655,1.795c-0.464,0.318 -0.959,0.476 -1.484,0.476c-0.269,0 -0.525,-0.045 -0.769,-0.137c-0.244,-0.092 -0.458,-0.223 -0.641,-0.394c-0.183,-0.171 -0.33,-0.378 -0.44,-0.622c-0.11,-0.245 -0.165,-0.519 -0.165,-0.825c0,-0.097 0.007,-0.186 0.019,-0.265c0.012,-0.079 0.03,-0.186 0.055,-0.321l1.007,-4.578Z" style="fill:rgb(131,133,136);fill-rule:nonzero;"/>
            <path d="M916.905,221.062c0,0.854 -0.122,1.645 -0.366,2.371c-0.244,0.727 -0.604,1.352 -1.08,1.877c-0.477,0.525 -1.072,0.938 -1.786,1.237c-0.714,0.299 -1.542,0.448 -2.482,0.448c-0.537,0 -1.041,-0.079 -1.511,-0.238c-0.47,-0.158 -0.882,-0.393 -1.236,-0.705c-0.354,-0.311 -0.635,-0.693 -0.842,-1.144c-0.208,-0.452 -0.312,-0.965 -0.312,-1.539c0,-0.94 0.147,-1.779 0.44,-2.518c0.293,-0.738 0.693,-1.364 1.199,-1.877c0.507,-0.513 1.105,-0.903 1.795,-1.172c0.69,-0.269 1.432,-0.403 2.226,-0.403c0.573,0 1.105,0.089 1.593,0.266c0.488,0.177 0.906,0.424 1.254,0.741c0.348,0.318 0.62,0.702 0.815,1.154c0.196,0.452 0.293,0.952 0.293,1.502Zm-5.366,3.772c0.44,-0.012 0.846,-0.11 1.218,-0.293c0.373,-0.183 0.69,-0.424 0.953,-0.723c0.262,-0.299 0.467,-0.65 0.613,-1.053c0.147,-0.403 0.22,-0.83 0.22,-1.282c-0,-0.635 -0.171,-1.114 -0.513,-1.438c-0.342,-0.323 -0.8,-0.485 -1.374,-0.485c-0.439,0 -0.842,0.095 -1.208,0.284c-0.367,0.189 -0.684,0.439 -0.953,0.751c-0.268,0.311 -0.476,0.668 -0.622,1.071c-0.147,0.403 -0.22,0.824 -0.22,1.264c-0,0.622 0.171,1.095 0.513,1.419c0.342,0.324 0.799,0.485 1.373,0.485Z" style="fill:rgb(131,133,136);fill-rule:nonzero;"/>
            <path d="M931.191,213.919l3.919,0l-1.245,9.194l-0.44,2.088l0.44,-0l0.476,-2.198l2.564,-9.084l4.029,0l-2.729,12.82l-2.088,-0l1.795,-8.424l0.824,-2.857l-0.439,-0l-3.278,11.281l-3.279,-0l1.447,-11.281l-0.439,-0l-0.367,2.747l-1.831,8.534l-2.07,-0l2.711,-12.82Z" style="fill:rgb(131,133,136);fill-rule:nonzero;"/>
            <path d="M943.333,222.948c-0.024,0.098 -0.036,0.201 -0.036,0.311c-0,0.44 0.168,0.806 0.503,1.099c0.336,0.293 0.779,0.44 1.328,0.44c0.574,-0 1.032,-0.104 1.374,-0.312c0.342,-0.207 0.604,-0.451 0.787,-0.732l1.832,1.154c-0.147,0.244 -0.339,0.488 -0.577,0.732c-0.238,0.244 -0.531,0.467 -0.879,0.669c-0.348,0.201 -0.757,0.366 -1.227,0.494c-0.47,0.128 -1.017,0.192 -1.639,0.192c-0.562,0 -1.078,-0.088 -1.548,-0.265c-0.47,-0.177 -0.873,-0.421 -1.209,-0.733c-0.336,-0.311 -0.598,-0.683 -0.787,-1.117c-0.19,-0.433 -0.284,-0.913 -0.284,-1.437c-0,-0.831 0.125,-1.612 0.375,-2.345c0.251,-0.732 0.614,-1.373 1.09,-1.923c0.476,-0.549 1.062,-0.982 1.758,-1.3c0.696,-0.317 1.496,-0.476 2.399,-0.476c0.635,0 1.188,0.101 1.658,0.302c0.47,0.202 0.858,0.47 1.163,0.806c0.305,0.336 0.534,0.717 0.687,1.145c0.152,0.427 0.229,0.866 0.229,1.318c-0,0.147 -0.01,0.296 -0.028,0.449c-0.018,0.152 -0.052,0.351 -0.101,0.595l-0.201,0.934l-6.667,0Zm2.894,-3.461c-0.574,-0 -1.071,0.143 -1.493,0.43c-0.421,0.287 -0.735,0.638 -0.943,1.053l4.286,0c-0,-0.464 -0.144,-0.827 -0.431,-1.089c-0.286,-0.263 -0.76,-0.394 -1.419,-0.394Z" style="fill:rgb(131,133,136);fill-rule:nonzero;"/>
            <path d="M878.353,800.173l-0,2.935c-0.025,-0 -0.049,-0 -0.073,-0c-4.264,-0 -7.725,-3.461 -7.725,-7.725c-0,-4.263 3.461,-7.724 7.725,-7.724c0.024,-0 0.048,-0 0.073,-0l-0,2.935c-0.013,-0 -0.026,-0 -0.039,-0c-2.643,-0 -4.79,2.146 -4.79,4.789c0,2.644 2.147,4.79 4.79,4.79c0.013,-0 0.026,-0 0.039,-0Z" style="fill:rgb(13,13,13);"/>
            <path d="M927.53,791.271c1.368,-2.17 3.787,-3.612 6.539,-3.612c2.753,-0 5.171,1.442 6.54,3.612c-1.398,0.837 -2.334,2.366 -2.334,4.112c-0,1.746 0.936,3.275 2.334,4.112c-1.369,2.17 -3.787,3.613 -6.54,3.613c-2.752,-0 -5.171,-1.443 -6.539,-3.613c1.397,-0.837 2.334,-2.366 2.334,-4.112c-0,-1.746 -0.937,-3.275 -2.334,-4.112Z" style="fill:rgb(13,13,13);"/>
            <path d="M925.112,800.173l0,2.935c-0.024,-0 -0.048,-0 -0.073,-0c-4.263,-0 -7.725,-3.461 -7.725,-7.725c0,-4.263 3.462,-7.724 7.725,-7.724c0.025,-0 0.049,-0 0.073,-0l0,2.935c-0.012,-0 -0.025,-0 -0.038,-0c-2.644,-0 -4.79,2.146 -4.79,4.789c-0,2.644 2.146,4.79 4.79,4.79c0.013,-0 0.026,-0 0.038,-0Z" style="fill:rgb(13,13,13);"/>
            <path d="M875.306,861.215l-0,2.935c0.024,0 0.049,0.001 0.073,0.001c4.264,-0 7.725,-3.462 7.725,-7.725c0,-4.264 -3.461,-7.725 -7.725,-7.725c-0.024,0 -0.049,0 -0.073,0l-0,2.935c0.013,0 0.026,0 0.039,0c2.643,0 4.789,2.146 4.789,4.79c0,2.643 -2.146,4.79 -4.789,4.79c-0.013,-0 -0.026,-0.001 -0.039,-0.001Z" style="fill:rgb(13,13,13);"/>
            <path d="M943.026,800.173l0,2.935c0.025,-0 0.049,-0 0.073,-0c4.264,-0 7.725,-3.461 7.725,-7.725c0,-4.263 -3.461,-7.724 -7.725,-7.724c-0.024,-0 -0.048,-0 -0.073,-0l0,2.935c0.013,-0 0.026,-0 0.039,-0c2.643,-0 4.79,2.146 4.79,4.789c-0,2.644 -2.147,4.79 -4.79,4.79c-0.013,-0 -0.026,-0 -0.039,-0Z" style="fill:rgb(13,13,13);"/>
            <g id="Waves">
                <ellipse cx="889.406" cy="371.248" rx="14.084" ry="14.083" style="fill:rgb(131,133,136);"/>
                <ellipse cx="889.406" cy="371.248" rx="11.687" ry="11.687" style="fill:rgb(131,133,136);"/>
                <ellipse cx="889.522" cy="371.248" rx="39.802" ry="39.799" style="fill:rgb(131,133,136);"/>
                <path id="_2nd-circl" serif:id="2nd circl" d="M946.497,413.98c0.557,0.456 1.17,0.846 1.827,1.158c-11.713,15.66 -29.531,26.493 -49.912,28.959c0.013,-0.199 0.02,-0.398 0.02,-0.6c0,-0.532 -0.047,-1.053 -0.136,-1.56c19.666,-2.421 36.862,-12.869 48.201,-27.957Zm-113.885,0.087c11.341,15.042 28.505,25.453 48.125,27.869c-0.09,0.507 -0.136,1.029 -0.136,1.561c-0,0.202 0.006,0.401 0.02,0.599c-20.35,-2.466 -38.144,-13.273 -49.857,-28.897c0.664,-0.302 1.283,-0.684 1.848,-1.132Zm-10.73,-71.315c0.591,0.409 1.234,0.748 1.918,1.006c-3.548,8.462 -5.508,17.749 -5.508,27.49c0,9.757 1.966,19.058 5.525,27.533c-0.68,0.267 -1.319,0.616 -1.905,1.034c-3.72,-8.785 -5.777,-18.437 -5.777,-28.567c-0,-10.105 2.047,-19.735 5.747,-28.496Zm135.304,0.06c3.685,8.744 5.723,18.354 5.723,28.436c-0,10.093 -2.043,19.713 -5.738,28.472c-0.593,-0.406 -1.237,-0.742 -1.921,-0.997c3.543,-8.454 5.501,-17.738 5.501,-27.475c-0,-9.719 -1.951,-18.986 -5.485,-27.435c0.684,-0.256 1.328,-0.594 1.92,-1.001Zm-10.668,-14.266c-11.465,-15.274 -28.929,-25.798 -48.884,-28.065c0.094,-0.498 0.143,-1.012 0.143,-1.537c0,-0.209 -0.008,-0.416 -0.023,-0.621c20.669,2.311 38.755,13.222 50.596,29.069c-0.659,0.31 -1.274,0.699 -1.832,1.154Zm-115.787,-1.204c11.842,-15.821 29.911,-26.71 50.558,-29.019c-0.015,0.205 -0.023,0.412 -0.023,0.621c-0,0.525 0.049,1.039 0.143,1.537c-19.93,2.264 -37.375,12.765 -48.845,28.013c-0.559,-0.454 -1.174,-0.842 -1.833,-1.152Z" style="fill:rgb(131,133,136);"/>
                <ellipse cx="889.488" cy="443.451" rx="8.962" ry="8.961" style="fill:rgb(131,133,136);"/>
                <ellipse cx="952.142" cy="335.461" rx="8.962" ry="8.961" style="fill:rgb(131,133,136);"/>
                <ellipse cx="952.142" cy="407.035" rx="8.962" ry="8.961" style="fill:rgb(131,133,136);"/>
                <ellipse cx="889.47" cy="299.045" rx="8.962" ry="8.961" style="fill:rgb(131,133,136);"/>
                <ellipse cx="826.901" cy="335.461" rx="8.962" ry="8.961" style="fill:rgb(131,133,136);"/>
                <ellipse cx="827.076" cy="407.035" rx="8.962" ry="8.961" style="fill:rgb(131,133,136);"/>
                <path id="Base1" serif:id="Base" d="M955.762,447.565l8.365,-0c-19.026,18.628 -44.978,30.21 -73.61,30.5l5.912,-5.912c22.626,-1.555 43.216,-10.563 59.333,-24.588Zm-141.076,-0l8.364,-0c16.116,14.025 36.707,23.034 59.333,24.588l5.913,5.912c-28.636,-0.292 -54.587,-11.874 -73.61,-30.5Zm74.72,28.56l-3.801,-3.801c1.261,0.047 2.528,0.07 3.801,0.07c1.273,0 2.54,-0.023 3.802,-0.07l-3.802,3.801Zm-96.449,-74.333c4.228,13.344 11.15,25.492 20.128,35.808l0,8.364c-8.193,-8.367 -15.023,-18.073 -20.128,-28.757l-0,-15.415Zm193.129,-0.74l0,15.668c-5.129,10.876 -12.042,20.751 -20.359,29.244l-0,-8.364c9.143,-10.505 16.155,-22.912 20.359,-36.548Zm-170.843,38.949c1.733,1.869 3.536,3.672 5.406,5.406l-5.406,0l-0,-5.406Zm148.326,5.406l-5.406,0c1.869,-1.733 3.672,-3.536 5.406,-5.406l0,5.406Zm22.517,-103.961c-4.202,-13.633 -11.214,-26.042 -20.359,-36.55l-0,-8.364c8.316,8.493 15.228,18.365 20.359,29.244l0,15.67Zm-193.129,-16.155c5.106,-10.687 11.936,-20.393 20.128,-28.759l0,8.364c-8.978,10.315 -15.901,22.464 -20.128,35.807l-0,-15.412Zm170.612,-28.202l0,5.406c-1.733,-1.868 -3.536,-3.671 -5.406,-5.406l5.406,0Zm-142.92,0c-1.868,1.734 -3.672,3.537 -5.406,5.406l-0,-5.406l5.406,0Zm67.647,-32.658l-5.913,5.912c-22.626,1.555 -43.216,10.564 -59.333,24.589l-8.364,-0c19.025,-18.629 44.978,-30.21 73.61,-30.501Zm2.221,0c28.635,0.293 54.586,11.874 73.61,30.501l-8.365,-0c-16.116,-14.025 -36.707,-23.035 -59.333,-24.589l-5.912,-5.912Zm2.691,5.742c-1.262,-0.047 -2.529,-0.071 -3.802,-0.071c-1.273,0 -2.54,0.024 -3.801,0.071l3.801,-3.801l3.802,3.801Z" style="fill:rgb(131,133,136);"/>
                <path d="M895.797,438.683l49.168,-28.385c0.302,0.662 0.693,1.275 1.157,1.823l-49.265,28.442c-0.267,-0.678 -0.625,-1.309 -1.06,-1.88Zm-61.581,-28.305l49.03,28.305c-0.435,0.571 -0.793,1.203 -1.06,1.88l-49.148,-28.374c0.471,-0.544 0.869,-1.153 1.178,-1.811Zm-8.394,-67.108c0.353,0.049 0.713,0.074 1.079,0.074c0.366,-0 0.726,-0.025 1.079,-0.074l-0,55.934c-0.297,-0.034 -0.599,-0.051 -0.904,-0.051c-0.427,-0 -0.846,0.034 -1.254,0.099l0,-55.982Zm127.399,55.956c-0.353,-0.048 -0.713,-0.073 -1.079,-0.073c-0.366,-0 -0.726,0.025 -1.078,0.073l-0,-55.956c0.352,0.049 0.712,0.074 1.078,0.074c0.366,-0 0.726,-0.025 1.079,-0.074l0,55.956Zm-7.099,-68.851c-0.464,0.549 -0.855,1.162 -1.157,1.823l-49.203,-28.405c0.432,-0.572 0.789,-1.205 1.054,-1.883l49.306,28.465Zm-113.201,0l49.223,-28.417c0.27,0.676 0.63,1.307 1.066,1.875l-49.132,28.365c-0.302,-0.661 -0.693,-1.274 -1.157,-1.823Z" style="fill:rgb(131,133,136);"/>
            </g>
        </g>
        <g id="Copper">
            <path id="Legend" d="M875.345,851.636c-2.644,0 -4.79,2.146 -4.79,4.79c-0,2.643 2.146,4.79 4.79,4.79c2.643,-0 4.789,-2.147 4.789,-4.79c0,-2.644 -2.146,-4.79 -4.789,-4.79Zm2.969,-61.042c2.644,-0 4.79,2.146 4.79,4.789c0,2.644 -2.146,4.79 -4.79,4.79c-2.643,-0 -4.79,-2.146 -4.79,-4.79c0,-2.643 2.147,-4.789 4.79,-4.789Zm46.76,-0c2.643,-0 4.79,2.146 4.79,4.789c-0,2.644 -2.147,4.79 -4.79,4.79c-2.644,-0 -4.79,-2.146 -4.79,-4.79c-0,-2.643 2.146,-4.789 4.79,-4.789Zm17.991,-0c-2.644,-0 -4.79,2.146 -4.79,4.789c-0,2.644 2.146,4.79 4.79,4.79c2.643,-0 4.79,-2.146 4.79,-4.79c-0,-2.643 -2.147,-4.789 -4.79,-4.789Z" style="fill:rgb(131,133,136);"/>
            <path id="Volume-indicators" serif:id="Volume indicators" d="M946.925,626.79c7.106,0 12.876,5.769 12.876,12.875c-0,7.106 -5.77,12.875 -12.876,12.875c-7.106,-0 -12.875,-5.769 -12.875,-12.875c0,-7.106 5.769,-12.875 12.875,-12.875Zm-115.986,10.944c1.066,-0 1.931,0.865 1.931,1.931c0,1.066 -0.865,1.931 -1.931,1.931c-1.066,0 -1.931,-0.865 -1.931,-1.931c-0,-1.066 0.865,-1.931 1.931,-1.931Zm140.537,-68.01c6.395,-0 11.588,5.192 11.588,11.587c-0,6.395 -5.193,11.587 -11.588,11.587c-6.396,0 -11.588,-5.192 -11.588,-11.587c0,-6.395 5.192,-11.587 11.588,-11.587Zm-163.909,7.725c2.132,-0 3.863,1.73 3.863,3.862c-0,2.132 -1.731,3.862 -3.863,3.862c-2.131,0 -3.862,-1.73 -3.862,-3.862c-0,-2.132 1.731,-3.862 3.862,-3.862Zm139.358,-64.413c5.33,-0 9.657,4.326 9.657,9.656c-0,5.329 -4.327,9.656 -9.657,9.656c-5.329,-0 -9.656,-4.327 -9.656,-9.656c-0,-5.33 4.327,-9.656 9.656,-9.656Zm-115.986,4.087c3.198,0 5.794,2.596 5.794,5.794c-0,3.198 -2.596,5.794 -5.794,5.794c-3.198,-0 -5.794,-2.596 -5.794,-5.794c0,-3.198 2.596,-5.794 5.794,-5.794Zm58.583,-25.486c4.263,-0 7.725,3.461 7.725,7.725c-0,4.263 -3.462,7.724 -7.725,7.724c-4.264,0 -7.726,-3.461 -7.726,-7.724c0,-4.264 3.462,-7.725 7.726,-7.725Z" style="fill:rgb(131,133,136);"/>
            <path d="M889.406,658.544l16.424,9.482l-0,18.963l-16.424,9.482l-16.424,-9.482l0,-18.963l16.424,-9.482Z" style="fill:rgb(131,133,136);"/>
            <path d="M898.888,661.085l9.483,16.423l-9.483,16.423l-18.964,-0l-9.482,-16.423l9.482,-16.423l18.964,-0Z" style="fill:rgb(131,133,136);"/>
        </g>
        <g>
            <g>
                <path d="M935.157,538.411c0.173,-0.173 0.173,-0.454 0,-0.627l-2.444,-2.445c-0.176,-0.176 -0.462,-0.176 -0.639,0l-43.97,43.968c-0.067,0.067 -0.067,0.175 -0,0.242l2.835,2.835c0.067,0.067 0.175,0.067 0.242,0l43.976,-43.973Z" style="fill:rgb(131,133,136);"/>
                <path d="M935.157,538.411c0.173,-0.173 0.173,-0.454 0,-0.627l-2.444,-2.445c-0.176,-0.176 -0.462,-0.176 -0.639,0l-43.97,43.968c-0.067,0.067 -0.067,0.175 -0,0.242l2.835,2.835c0.067,0.067 0.175,0.067 0.242,0l43.976,-43.973Z" style="fill:rgb(131,133,136);"/>
            </g>
            <ellipse cx="889.522" cy="581.311" rx="64.377" ry="64.373" style="fill:none;stroke:rgb(131,133,136);stroke-width:4.17px;"/>
        </g>
        <g id="Jack">
            <path d="M850.303,819.347c-0.143,0.248 -0.408,0.4 -0.694,0.4c-3.349,-0.004 -23.843,-0.025 -27.192,-0.029c-0.286,-0 -0.55,-0.153 -0.693,-0.401c-1.671,-2.902 -11.901,-20.661 -13.572,-23.563c-0.143,-0.248 -0.143,-0.553 0.001,-0.801c1.677,-2.898 11.942,-20.635 13.619,-23.533c0.143,-0.248 0.408,-0.401 0.694,-0.4c3.349,0.003 23.843,0.025 27.192,0.028c0.286,0.001 0.55,0.154 0.693,0.402c1.671,2.901 11.901,20.66 13.572,23.562c0.143,0.248 0.143,0.554 -0.001,0.801c-1.677,2.899 -11.942,20.636 -13.619,23.534Z" style="fill:rgb(254,255,254);stroke:rgb(17,18,24);stroke-width:4.17px;"/>
            <path d="M844.254,783.219c6.714,4.535 8.483,13.668 3.948,20.382c-4.535,6.713 -13.668,8.482 -20.382,3.946c-6.714,-4.535 -8.483,-13.668 -3.947,-20.381c4.535,-6.714 13.667,-8.482 20.381,-3.947Z" style="fill:rgb(131,133,136);"/>
            <path d="M845.784,780.955c7.964,5.379 10.062,16.212 4.683,24.175c-5.38,7.964 -16.212,10.061 -24.176,4.682c-7.964,-5.38 -10.062,-16.213 -4.683,-24.176c5.379,-7.963 16.212,-10.061 24.176,-4.681Zm-1.53,2.264c-6.714,-4.535 -15.846,-2.767 -20.381,3.947c-4.536,6.713 -2.767,15.846 3.947,20.381c6.714,4.536 15.847,2.767 20.382,-3.946c4.535,-6.714 2.766,-15.847 -3.948,-20.382Z" style="fill:rgb(131,133,136);"/>
        </g>
        <g id="Jack1" serif:id="Jack">
            <path d="M850.34,880.368c-0.143,0.248 -0.408,0.401 -0.694,0.401c-3.349,0.001 -23.842,0.011 -27.191,0.013c-0.286,0 -0.551,-0.152 -0.694,-0.4c-1.676,-2.899 -11.932,-20.643 -13.608,-23.542c-0.143,-0.248 -0.144,-0.553 -0.001,-0.801c1.673,-2.901 11.91,-20.654 13.583,-23.555c0.143,-0.248 0.407,-0.401 0.694,-0.401c3.348,-0.002 23.842,-0.012 27.191,-0.013c0.286,-0 0.55,0.152 0.694,0.4c1.676,2.899 11.932,20.642 13.608,23.542c0.143,0.248 0.143,0.553 0,0.801c-1.672,2.901 -11.909,20.654 -13.582,23.555Z" style="fill:rgb(254,255,254);stroke:rgb(17,18,24);stroke-width:4.17px;"/>
            <path d="M844.235,844.249c6.721,4.525 8.504,13.655 3.98,20.376c-4.525,6.72 -13.655,8.503 -20.376,3.978c-6.72,-4.525 -8.504,-13.655 -3.979,-20.376c4.525,-6.721 13.655,-8.503 20.375,-3.978Z" style="fill:rgb(131,133,136);"/>
            <path d="M845.762,841.982c7.972,5.367 10.086,16.197 4.72,24.169c-5.367,7.972 -16.197,10.086 -24.169,4.719c-7.972,-5.368 -10.087,-16.197 -4.72,-24.169c5.367,-7.972 16.197,-10.086 24.169,-4.719Zm-1.527,2.267c-6.72,-4.525 -15.85,-2.743 -20.375,3.978c-4.525,6.721 -2.741,15.851 3.979,20.376c6.721,4.525 15.851,2.742 20.376,-3.978c4.524,-6.721 2.741,-15.851 -3.98,-20.376Z" style="fill:rgb(131,133,136);"/>
        </g>
        <g id="Headphone-Jack" serif:id="Headphone Jack">
            <path d="M964.759,829.279l0.001,35.386l-30.646,17.692l-30.648,-17.692l-0.001,-35.386l30.647,-17.693l30.647,17.693Z" style="fill:none;stroke:rgb(17,18,24);stroke-width:4.17px;"/>
            <path d="M934.112,824.538c12.382,-0 22.435,10.052 22.436,22.434c-0,12.381 -10.053,22.433 -22.435,22.433c-12.382,0 -22.435,-10.052 -22.435,-22.433c-0.001,-12.382 10.052,-22.434 22.434,-22.434Z" style="fill:rgb(131,133,136);"/>
            <path d="M934.112,820.371c14.682,0 26.602,11.919 26.602,26.6c0.001,14.682 -11.919,26.601 -26.601,26.601c-14.682,0 -26.602,-11.919 -26.602,-26.6c-0,-14.682 11.919,-26.601 26.601,-26.601Zm-0,4.167c-12.382,-0 -22.435,10.052 -22.434,22.434c0,12.381 10.053,22.433 22.435,22.433c12.382,0 22.435,-10.052 22.435,-22.433c-0.001,-12.382 -10.054,-22.434 -22.436,-22.434Z" style="fill:rgb(131,133,136);"/>
        </g>
    </g>
    <g id="Left-in" serif:id="Left in">
        <circle cx="836.037" cy="795.383" r="17.286" style="fill:rgb(66,141,148);"/>
        <path d="M650.528,782.954l5.339,-0.002l0.143,-4.523l20.66,-0.007l-0.142,4.523l5.378,-0.002l0.162,-5.148l7.602,-0.003c0.484,-1.679 2.074,-2.924 3.918,-2.924l69.677,-0.024c2.178,-0 3.891,1.733 3.824,3.87l-0.06,1.925l2.711,-0.001l-0.195,6.207l41.794,-0.014l-0.024,0.782l5.183,-0.002c1.216,-0 2.173,0.968 2.136,2.162l0.018,-0.565l14.749,-0.82l5.405,4.368l-0.156,5.233l-5.543,4.347l-14.822,-1.453l-0.009,0.276c-0.037,1.193 -1.055,2.162 -2.272,2.162l-5.183,0.002l-0.016,0.508l-41.794,0.014l-0.195,6.193l-2.711,0.001l-0.062,1.987c-0.068,2.137 -1.89,3.872 -4.068,3.873l-69.677,0.023c-1.775,0.001 -3.241,-1.151 -3.687,-2.734l-7.655,0.003l0.167,-5.312l-5.379,0.001l-0.144,4.579l-20.66,0.007l0.144,-4.579l-5.339,0.002l0.754,-24.002l-0.898,28.581l-19.527,0.006c-0.631,0.001 -1.128,-0.502 -1.109,-1.122l0.366,-31.791c0.019,-0.62 0.548,-1.123 1.18,-1.123l20.159,-0.007l-0.142,4.523Zm-21.304,0.007l-0.15,24.935l0.15,-24.935Z" style="fill:rgb(66,141,148);"/>
        <path d="M626.025,795.3l0.074,-12.358l0.068,0.001l0.039,-3.418c0,-0.021 0.001,-0.041 0.002,-0.062c0.071,-2.274 1.984,-4.149 4.301,-4.15l20.16,-0.007c0.846,-0 1.656,0.343 2.245,0.95c0.163,0.168 0.305,0.353 0.425,0.549c0.549,-0.901 1.541,-1.5 2.67,-1.501l20.66,-0.007c0.846,0 1.656,0.343 2.244,0.95c0.101,0.104 0.193,0.213 0.277,0.328c0.476,-1.122 1.587,-1.905 2.877,-1.905c-0,-0 5.725,-0.002 5.725,-0.002c1.315,-1.765 3.435,-2.925 5.795,-2.925l69.677,-0.024c3.532,-0.001 6.37,2.522 6.873,5.819c0.699,0.09 1.351,0.414 1.847,0.925c0.589,0.607 0.906,1.428 0.879,2.273l-0.093,2.983l38.568,-0.013c0.764,0 1.499,0.28 2.068,0.781l3.091,-0.001c1.466,-0 2.773,0.575 3.717,1.505l13.014,-0.723c0.773,-0.043 1.535,0.203 2.137,0.689l5.405,4.368c0.76,0.614 1.189,1.548 1.16,2.524l-0.156,5.233c-0.027,0.927 -0.465,1.794 -1.195,2.367l-5.543,4.346c-0.633,0.497 -1.433,0.73 -2.234,0.651l-12.439,-1.219c-0.985,1.338 -2.577,2.219 -4.358,2.219l-3.491,0.002c-0.491,0.321 -1.078,0.508 -1.708,0.508c0,-0 -38.767,0.013 -38.767,0.013l-0.099,3.167c-0.051,1.606 -1.307,2.898 -2.884,3.018c-0.606,3.308 -3.572,5.869 -7.08,5.87l-69.677,0.023c-2.299,0.001 -4.303,-1.075 -5.561,-2.733l-5.781,0.002c-0.846,0 -1.656,-0.342 -2.245,-0.95c-0.279,-0.288 -0.497,-0.623 -0.646,-0.987c-0.573,0.734 -1.465,1.205 -2.465,1.205l-20.66,0.007c-0.846,0 -1.656,-0.343 -2.245,-0.95c-0.163,-0.168 -0.305,-0.353 -0.425,-0.549c-0.549,0.901 -1.541,1.5 -2.669,1.501l-19.527,0.006c-2.415,0.001 -4.288,-1.942 -4.234,-4.302l0.184,-15.997Zm23.72,12.589l5.339,-0.002l-0.144,4.579l20.66,-0.007l0.144,-4.579l5.379,-0.001l-0.167,5.312l7.655,-0.003c0.446,1.583 1.912,2.735 3.687,2.734l69.677,-0.023c2.178,-0.001 4,-1.736 4.068,-3.873l0.062,-1.987l2.711,-0.001l0.195,-6.193l41.794,-0.014l0.016,-0.508l5.183,-0.002c0.459,0 0.89,-0.138 1.25,-0.374l1.031,1.061l2.935,-2.837l0.014,0.001l-2.685,2.825c1.495,-0.125 2.7,-1.305 2.846,-2.809l11.712,1.148l5.543,-4.347l0.156,-5.233l-5.405,-4.368l-14.749,0.82l-0.018,0.565c0.037,-1.194 -0.92,-2.162 -2.136,-2.162l-5.183,0.002l0.024,-0.782l-41.794,0.014l0.195,-6.207l-2.711,0.001l0.06,-1.925c0.067,-2.137 -1.646,-3.87 -3.824,-3.87l-69.677,0.024c-1.844,0 -3.434,1.245 -3.918,2.924l-7.602,0.003l-0.162,5.148l-5.378,0.002l0.142,-4.523l-20.66,0.007l-0.143,4.523l-5.339,0.002l0.142,-4.523l-20.159,0.007c-0.632,0 -1.161,0.503 -1.18,1.123l-0.366,31.791c-0.019,0.62 0.478,1.123 1.109,1.122l19.527,-0.006l0.144,-4.579Zm169.531,-3.769l-0.772,-0.076l-0.228,0.24c0.35,-0 0.686,-0.058 1,-0.164Z" style="fill:white;"/>
        <rect x="811.19" y="787.717" width="3.964" height="15.71" style="fill:rgb(35,31,32);"/>
        <rect x="222.886" y="785.521" width="409.563" height="19.934" style="fill:rgb(66,141,148);"/>
    </g>
    <g id="Right-in" serif:id="Right in">
        <circle cx="836.037" cy="856.426" r="17.286" style="fill:rgb(125,97,170);"/>
        <path d="M650.528,843.997l5.339,-0.002l0.143,-4.523l20.66,-0.007l-0.142,4.523l5.378,-0.002l0.162,-5.148l7.602,-0.003c0.484,-1.679 2.074,-2.924 3.918,-2.925l69.677,-0.023c2.178,-0.001 3.891,1.733 3.824,3.87l-0.06,1.925l2.711,-0.001l-0.195,6.207l41.794,-0.014l-0.024,0.782l5.183,-0.002c1.216,-0.001 2.173,0.968 2.136,2.161l0.018,-0.564l14.749,-0.82l5.405,4.367l-0.156,5.234l-5.543,4.347l-14.822,-1.454l-0.009,0.276c-0.037,1.193 -1.055,2.163 -2.272,2.163l-5.183,0.002l-0.016,0.507l-41.794,0.015l-0.195,6.192l-2.711,0.001l-0.062,1.988c-0.068,2.137 -1.89,3.872 -4.068,3.872l-69.677,0.024c-1.775,0 -3.241,-1.151 -3.687,-2.734l-7.655,0.003l0.167,-5.313l-5.379,0.002l-0.144,4.578l-20.66,0.007l0.144,-4.578l-5.339,0.002l0.754,-24.002l-0.898,28.58l-19.527,0.007c-0.631,0 -1.128,-0.503 -1.109,-1.122l0.366,-31.791c0.019,-0.62 0.548,-1.123 1.18,-1.123l20.159,-0.007l-0.142,4.523Zm-21.304,0.007l-0.15,24.935l0.15,-24.935Z" style="fill:rgb(125,97,170);"/>
        <path d="M626.025,856.343l0.074,-12.358l0.068,0l0.039,-3.417c0,-0.021 0.001,-0.042 0.002,-0.063c0.071,-2.274 1.984,-4.149 4.301,-4.149l20.16,-0.007c0.846,-0.001 1.656,0.342 2.245,0.95c0.163,0.168 0.305,0.352 0.425,0.549c0.549,-0.901 1.541,-1.501 2.67,-1.501l20.66,-0.007c0.846,-0 1.656,0.342 2.244,0.95c0.101,0.103 0.193,0.213 0.277,0.328c0.476,-1.122 1.587,-1.905 2.877,-1.905c-0,-0 5.725,-0.002 5.725,-0.002c1.315,-1.766 3.435,-2.925 5.795,-2.926l69.677,-0.023c3.532,-0.001 6.37,2.521 6.873,5.819c0.699,0.09 1.351,0.413 1.847,0.925c0.589,0.607 0.906,1.427 0.879,2.273l-0.093,2.983l38.568,-0.013c0.764,-0 1.499,0.279 2.068,0.781l3.091,-0.001c1.466,-0.001 2.773,0.574 3.717,1.505l13.014,-0.724c0.773,-0.043 1.535,0.203 2.137,0.69l5.405,4.368c0.76,0.614 1.189,1.547 1.16,2.523l-0.156,5.234c-0.027,0.927 -0.465,1.794 -1.195,2.366l-5.543,4.347c-0.633,0.496 -1.433,0.729 -2.234,0.651l-12.439,-1.22c-0.985,1.338 -2.577,2.219 -4.358,2.22l-3.491,0.001c-0.491,0.322 -1.078,0.508 -1.708,0.508c0,0 -38.767,0.014 -38.767,0.014l-0.099,3.167c-0.051,1.606 -1.307,2.897 -2.884,3.017c-0.606,3.309 -3.572,5.869 -7.08,5.87l-69.677,0.024c-2.299,0.001 -4.303,-1.075 -5.561,-2.733l-5.781,0.002c-0.846,-0 -1.656,-0.343 -2.245,-0.95c-0.279,-0.288 -0.497,-0.624 -0.646,-0.987c-0.573,0.734 -1.465,1.204 -2.465,1.204l-20.66,0.007c-0.846,0.001 -1.656,-0.342 -2.245,-0.949c-0.163,-0.169 -0.305,-0.353 -0.425,-0.55c-0.549,0.902 -1.541,1.501 -2.669,1.501l-19.527,0.007c-2.415,0.001 -4.288,-1.943 -4.234,-4.303l0.184,-15.996Zm23.72,12.589l5.339,-0.002l-0.144,4.578l20.66,-0.007l0.144,-4.578l5.379,-0.002l-0.167,5.313l7.655,-0.003c0.446,1.583 1.912,2.734 3.687,2.734l69.677,-0.024c2.178,-0 4,-1.735 4.068,-3.872l0.062,-1.988l2.711,-0.001l0.195,-6.192l41.794,-0.015l0.016,-0.507l5.183,-0.002c0.459,-0 0.89,-0.138 1.25,-0.374l1.031,1.06l2.935,-2.837l0.014,0.002l-2.685,2.824c1.495,-0.125 2.7,-1.305 2.846,-2.809l11.712,1.149l5.543,-4.347l0.156,-5.234l-5.405,-4.367l-14.749,0.82l-0.018,0.564c0.037,-1.193 -0.92,-2.162 -2.136,-2.161l-5.183,0.002l0.024,-0.782l-41.794,0.014l0.195,-6.207l-2.711,0.001l0.06,-1.925c0.067,-2.137 -1.646,-3.871 -3.824,-3.87l-69.677,0.023c-1.844,0.001 -3.434,1.246 -3.918,2.925l-7.602,0.003l-0.162,5.148l-5.378,0.002l0.142,-4.523l-20.66,0.007l-0.143,4.523l-5.339,0.002l0.142,-4.523l-20.159,0.007c-0.632,-0 -1.161,0.503 -1.18,1.123l-0.366,31.791c-0.019,0.619 0.478,1.122 1.109,1.122l19.527,-0.007l0.144,-4.578Zm169.531,-3.769l-0.772,-0.076l-0.228,0.239c0.35,0 0.686,-0.057 1,-0.163Z" style="fill:white;"/>
        <rect x="811.19" y="848.655" width="3.964" height="15.71" style="fill:rgb(35,31,32);"/>
        <rect x="222.886" y="846.459" width="409.563" height="19.934" style="fill:rgb(125,97,170);"/>
    </g>
    <g id="Headphones-Stereo" serif:id="Headphones Stereo">
        <g id="Jack2" serif:id="Jack">
            <path d="M1161.4,864.822l-6.574,0.003l-0.175,6.149l-25.438,0.01l0.175,-6.15l-6.623,0.003l-0.199,7l-9.36,0.003c-0.596,2.283 -2.553,3.976 -4.824,3.977l-85.793,0.032c-2.681,0.001 -4.791,-2.357 -4.708,-5.262l0.074,-2.617l-3.338,0.001l0.24,-8.439l-51.46,0.019l0.03,-1.063l-6.382,0.002c-1.498,0.001 -2.676,-1.316 -2.63,-2.938l-0.022,0.767l-18.161,1.115l-6.655,-5.939l0.192,-7.115l6.825,-5.911l18.251,1.977l0.011,-0.375c0.046,-1.623 1.299,-2.94 2.797,-2.941l6.382,-0.002l0.02,-0.691l51.46,-0.019l0.24,-8.42l3.338,-0.001l0.077,-2.703c0.082,-2.905 2.326,-5.264 5.008,-5.265l85.792,-0.032c2.185,-0.001 3.991,1.565 4.54,3.717l9.426,-0.003l-0.206,7.223l6.623,-0.003l0.177,-6.225l25.438,-0.009l-0.177,6.225l6.574,-0.003l-0.929,32.635l1.106,-38.86l24.043,-0.009c0.777,-0 1.389,0.684 1.365,1.526l-0.45,43.225c-0.024,0.842 -0.675,1.526 -1.452,1.527l-24.823,0.009l0.175,-6.15Zm26.232,-0.009l0.184,-33.903l-0.184,33.903Z" style="fill:rgb(35,31,32);"/>
            <path d="M952.548,837.054c1.05,-1.836 2.986,-3.048 5.101,-3.049l4.442,-0.002c0.537,-0.432 1.219,-0.69 1.959,-0.691l48.425,-0.018l0.153,-5.385c0.048,-1.69 1.432,-3.035 3.123,-3.036l0.308,-0c0.295,-4.486 3.93,-7.967 8.115,-7.969l85.792,-0.032c2.749,-0.001 5.171,1.454 6.572,3.717l7.393,-0.003c0.845,-0.001 1.653,0.341 2.242,0.946c0.589,0.606 0.907,1.424 0.883,2.268l-0.114,4.008c0,-0 0.37,-0.001 0.37,-0.001l0.091,-3.19c0.048,-1.69 1.432,-3.035 3.123,-3.036l25.438,-0.009c0.844,-0.001 1.653,0.341 2.242,0.946c0.588,0.606 0.907,1.424 0.883,2.268l-0.086,3.01l0.321,-0l0.091,-3.191c0.048,-1.69 1.432,-3.035 3.123,-3.036l24.042,-0.009c2.469,-0.001 4.55,2.036 4.492,4.704l-0.227,21.759l-0.091,16.807l-0.084,-0.001l-0.048,4.639c-0,0.019 -0.001,0.038 -0.001,0.057c-0.074,2.583 -2.191,4.562 -4.575,4.563l-24.823,0.009c-0.844,0 -1.653,-0.341 -2.241,-0.947c-0.589,-0.605 -0.908,-1.423 -0.884,-2.267l0.084,-2.934l-0.321,-0l-0.089,3.114c-0.048,1.69 -1.432,3.036 -3.123,3.036l-25.438,0.01c-0.844,0 -1.653,-0.341 -2.242,-0.947c-0.588,-0.605 -0.907,-1.423 -0.883,-2.267l0.084,-2.935l-0.37,0.001l-0.113,3.965c-0.048,1.69 -1.432,3.035 -3.123,3.036c0,-0 -7.327,0.003 -7.326,0.002c-1.466,2.408 -4.034,3.977 -6.858,3.978l-85.792,0.032c-4.198,0.001 -7.664,-3.418 -7.831,-7.878l-0.142,0c-0.844,0.001 -1.653,-0.341 -2.241,-0.946c-0.589,-0.606 -0.908,-1.424 -0.883,-2.268l0.148,-5.224l-48.244,0.018c-0.844,-0 -1.653,-0.341 -2.242,-0.947c-0.036,-0.037 -0.072,-0.076 -0.106,-0.115l-4.004,0.001c-1.732,0.001 -3.305,-0.787 -4.367,-2.06l-16.255,0.998c-0.832,0.051 -1.65,-0.232 -2.272,-0.787l-6.655,-5.939c-0.687,-0.612 -1.068,-1.496 -1.043,-2.416l0.191,-7.116c0.024,-0.877 0.415,-1.703 1.078,-2.278l6.826,-5.91c0.656,-0.568 1.519,-0.838 2.382,-0.744l15.62,1.691Zm1.864,18.498c-0.046,1.622 1.132,2.939 2.63,2.938l6.382,-0.002l-0.03,1.063l51.46,-0.019l-0.24,8.439l3.338,-0.001l-0.074,2.617c-0.083,2.905 2.027,5.263 4.708,5.262l85.793,-0.032c2.271,-0.001 4.228,-1.694 4.824,-3.977l9.36,-0.003l0.199,-7l6.623,-0.003l-0.175,6.15l25.438,-0.01l0.175,-6.149l6.574,-0.003l-0.175,6.15l24.823,-0.009c0.777,-0.001 1.428,-0.685 1.452,-1.527l0.45,-43.225c0.024,-0.842 -0.588,-1.526 -1.365,-1.526l-24.043,0.009l-0.177,6.225l-6.574,0.003l0.177,-6.225l-25.438,0.009l-0.177,6.225l-6.623,0.003l0.206,-7.223l-9.426,0.003c-0.549,-2.152 -2.355,-3.718 -4.54,-3.717l-85.792,0.032c-2.682,0.001 -4.926,2.36 -5.008,5.265l-0.077,2.703l-3.338,0.001l-0.24,8.42l-51.46,0.019l-0.02,0.691l-6.382,0.002c-1.498,0.001 -2.751,1.318 -2.797,2.941l-0.011,0.375l-18.251,-1.977l-6.825,5.911l-0.192,7.115l6.655,5.939l18.161,-1.115l0.022,-0.767Z" style="fill:white;"/>
            <rect x="958.697" y="837.129" width="4.88" height="21.359" style="fill:white;"/>
            <rect x="978.545" y="836.072" width="4.88" height="23.473" style="fill:white;"/>
        </g>
        <path d="M1161.88,847.809c76.513,-0 133.223,2.882 133.223,-49.051c0,-22.076 -22.314,-47.755 -79.885,-47.755c-51.181,-0 -74.596,-36.99 -71.378,-66.712" style="fill:none;stroke:rgb(35,31,32);stroke-width:16.67px;"/>
        <g>
            <path d="M1166.98,605.463c0,-5.436 -4.413,-9.85 -9.85,-9.85l-19.699,0c-5.436,0 -9.85,4.414 -9.85,9.85l0,69.663c0,5.436 4.414,9.849 9.85,9.849l19.699,0c5.437,0 9.85,-4.413 9.85,-9.849l0,-69.663Z" style="fill:rgb(35,31,32);"/>
            <path d="M1363.81,605.463c-0,-5.436 4.413,-9.85 9.85,-9.85l19.699,0c5.436,0 9.85,4.414 9.85,9.85l-0,69.663c-0,5.436 -4.414,9.849 -9.85,9.849l-19.699,0c-5.437,0 -9.85,-4.413 -9.85,-9.849l-0,-69.663Z" style="fill:rgb(35,31,32);"/>
            <path d="M1139.92,605.225c-0.213,-3.001 -0.32,-6.023 -0.32,-9.071c-0,-69.418 55.932,-125.777 124.825,-125.777c68.893,0 124.825,56.359 124.825,125.777c0,3.048 -0.108,6.07 -0.321,9.071l-19.288,-0c0.252,-2.993 0.38,-6.017 0.38,-9.071c-0,-58.724 -47.316,-106.401 -105.596,-106.401c-58.28,0 -105.596,47.677 -105.596,106.401c-0,3.054 0.128,6.078 0.379,9.071l-19.288,-0Z" style="fill:rgb(35,31,32);"/>
            <path d="M1336.48,609.633c-0,-16.922 12.244,-30.661 27.325,-30.661c15.081,0 27.325,13.739 27.325,30.661c-0,0 -0,61.322 -0,61.322c-0,16.923 -12.244,30.662 -27.325,30.662c-15.081,-0 -27.325,-13.739 -27.325,-30.662c-0,0 -0,-61.322 -0,-61.322Z" style="fill:rgb(97,64,153);"/>
            <path d="M1139.65,609.633c0,-16.922 12.244,-30.661 27.325,-30.661c15.081,0 27.325,13.739 27.325,30.661c-0,0 -0,61.322 -0,61.322c-0,16.923 -12.244,30.662 -27.325,30.662c-15.081,-0 -27.325,-13.739 -27.325,-30.662c0,0 0,-61.322 0,-61.322Z" style="fill:rgb(38,120,127);"/>
        </g>
    </g>
</svg>
