<?xml version="1.0" encoding="UTF-8" standalone="no"?>
<!DOCTYPE svg PUBLIC "-//W3C//DTD SVG 1.1//EN" "http://www.w3.org/Graphics/SVG/1.1/DTD/svg11.dtd">
<svg width="100%" height="100%" viewBox="0 0 1776 1150" version="1.1" xmlns="http://www.w3.org/2000/svg" xmlns:xlink="http://www.w3.org/1999/xlink" xml:space="preserve" xmlns:serif="http://www.serif.com/" style="fill-rule:evenodd;clip-rule:evenodd;stroke-linecap:round;stroke-linejoin:round;stroke-miterlimit:1.5;">
    <rect id="line-split-mono" x="0.891" y="0.951" width="1774.46" height="1148.18" style="fill:none;"/>
    <g id="Board">
        <rect id="Base" x="792.969" y="172.896" width="193.13" height="827.191" style="fill:none;stroke:rgb(12,12,12);stroke-width:4.17px;"/>
        <g id="Silk">
            <path d="M973.005,980.02c-3.287,0.223 -4.672,2.403 -5.408,4.7c-0.647,2.021 -1.372,4.106 -2.162,5.178c-0.438,0.595 -0.925,0.9 -1.4,0.9c-0.471,0 -0.816,-0.248 -1.037,-0.715c-0.337,-0.71 -0.329,-2.101 -0.239,-3.494c0.07,-1.092 0.178,-2.185 0.131,-2.885c-0.007,-0.101 -0.029,-0.216 -0.047,-0.301c-0.041,0.022 -0.081,0.05 -0.123,0.082c-0.155,0.116 -0.309,0.286 -0.464,0.487c-0.539,0.7 -1.072,1.76 -1.576,2.681c-0.43,0.785 -0.848,1.473 -1.221,1.818c-0.253,0.235 -0.51,0.339 -0.741,0.339c-0.436,0 -0.749,-0.265 -0.869,-0.819c-0.155,-0.708 0.06,-2.098 0.313,-3.487c0.201,-1.099 0.417,-2.199 0.425,-2.903c0.001,-0.089 -0.01,-0.19 -0.02,-0.269c-0.06,0.035 -0.12,0.088 -0.184,0.147c-0.195,0.18 -0.388,0.439 -0.584,0.749c-0.652,1.03 -1.301,2.591 -1.893,3.947c-0.487,1.116 -0.943,2.098 -1.326,2.589c-0.274,0.352 -0.568,0.494 -0.798,0.494c-0.435,0 -0.733,-0.226 -0.905,-0.647c-0.234,-0.579 -0.147,-1.713 0.02,-2.846c0.103,-0.704 0.227,-1.408 0.279,-1.949c0.013,-0.133 0.015,-0.283 0.013,-0.404c-0.039,0.019 -0.081,0.04 -0.125,0.063c-0.359,0.181 -0.821,0.473 -1.346,0.796c-0.919,0.567 -2.021,1.215 -3.113,1.599c-0.222,0.88 -0.581,1.718 -1.054,2.37c-0.629,0.868 -1.459,1.414 -2.423,1.414c-0.85,0 -1.378,-0.431 -1.713,-1.043c-0.283,-0.516 -0.415,-1.178 -0.496,-1.768c-0.036,-0.266 -0.084,-0.582 -0.119,-0.8c-0.174,0.075 -0.407,0.179 -0.618,0.278c-0.37,0.176 -0.803,0.37 -1.267,0.527c-0.195,0.92 -0.531,1.797 -0.982,2.477c-0.595,0.897 -1.392,1.456 -2.31,1.456c-0.817,0 -1.352,-0.454 -1.698,-1.116c-0.287,-0.55 -0.434,-1.255 -0.525,-1.884c-0.039,-0.268 -0.068,-0.521 -0.097,-0.736c-0.111,0.129 -0.229,0.279 -0.355,0.439c-0.373,0.471 -0.809,1.01 -1.298,1.368c-0.387,0.284 -0.809,0.46 -1.256,0.46c-0.804,-0 -1.432,-0.392 -1.89,-1.07c-0.377,-0.558 -0.634,-1.332 -0.777,-2.224c-0.657,0.479 -1.387,0.896 -2.101,1.275c-0.003,0.093 -0.009,0.186 -0.018,0.278c-0.096,0.995 -0.571,2.084 -1.179,2.796c-0.47,0.551 -1.029,0.873 -1.552,0.873c-0.273,-0 -0.591,-0.106 -0.87,-0.31c-0.397,-0.29 -0.711,-0.773 -0.711,-1.346c-0,-0.578 0.436,-1.136 1.21,-1.646c0.58,-0.381 1.359,-0.76 2.186,-1.184c-0.052,-0.559 -0.221,-1.099 -0.494,-1.492c-0.205,-0.295 -0.467,-0.506 -0.798,-0.506c-1.024,0 -1.705,0.594 -2.193,1.345c-0.548,0.841 -0.863,1.878 -1.102,2.655c-0.166,0.54 -0.309,0.968 -0.444,1.179c-0.165,0.256 -0.373,0.337 -0.549,0.337c-0.094,-0 -0.195,-0.025 -0.294,-0.099c-0.062,-0.046 -0.168,-0.163 -0.239,-0.383c-0.11,-0.345 -0.246,-1.195 -0.356,-2.335c-0.44,0.703 -0.872,1.345 -1.278,1.893c-0.646,0.873 -1.234,1.516 -1.678,1.827c-0.279,0.194 -0.529,0.275 -0.726,0.275c-0.859,-0 -1.341,-0.603 -1.489,-1.613c-0.168,-1.141 0.1,-2.868 0.361,-4.369c0.132,-0.763 0.26,-1.464 0.315,-1.988c0.015,-0.141 0.017,-0.299 0.016,-0.417c-0.396,0.032 -0.828,0.126 -1.266,0.222c-0.292,1.596 -1.186,3.507 -2.353,4.887c-0.987,1.166 -2.173,1.941 -3.334,1.941c-1.408,-0 -2.426,-0.549 -3.118,-1.393c-0.874,0.731 -1.844,1.187 -2.807,1.187c-1.018,0 -1.864,-0.773 -2.449,-2.103c-0.193,-0.438 -0.36,-0.938 -0.502,-1.484c-0.454,0.918 -0.914,1.753 -1.358,2.452c-0.53,0.834 -1.044,1.481 -1.503,1.868c-0.391,0.33 -0.766,0.484 -1.087,0.484c-0.697,-0 -1.19,-0.474 -1.465,-1.323c-0.311,-0.963 -0.352,-2.466 -0.336,-3.97c0.015,-1.424 0.077,-2.848 -0.042,-3.759c-0.027,-0.205 -0.062,-0.38 -0.113,-0.516c-0.009,-0.022 -0.022,-0.048 -0.034,-0.07c-0.029,0.019 -0.057,0.051 -0.09,0.082c-0.127,0.122 -0.251,0.299 -0.377,0.515c-0.444,0.758 -0.878,1.945 -1.307,3.13c-0.527,1.457 -1.048,2.912 -1.544,3.655c-0.321,0.479 -0.684,0.696 -0.995,0.696c-0.356,0 -0.663,-0.219 -0.838,-0.699c-0.223,-0.614 -0.237,-1.817 -0.229,-3.021c0.006,-0.945 0.022,-1.889 -0.089,-2.494c-0.019,-0.1 -0.06,-0.219 -0.086,-0.289c-0.211,0.046 -0.388,0.228 -0.569,0.459c-0.451,0.573 -0.843,1.472 -1.259,2.367c-0.453,0.977 -0.933,1.95 -1.502,2.575c-0.459,0.504 -0.981,0.796 -1.572,0.796c-0.941,0 -1.448,-0.667 -1.565,-1.844c-0.135,-1.35 0.247,-3.46 0.614,-5.569c0.132,-0.757 0.263,-1.514 0.362,-2.232c-0.169,0.033 -0.346,0.05 -0.529,0.05c-1.918,0 -2.505,-1.794 -2.142,-3.261c0.251,-1.017 0.964,-1.811 1.879,-1.811c1.049,-0 1.615,0.669 1.809,1.813c0.07,0.411 0.088,0.893 0.069,1.424c0.064,-0.088 0.125,-0.181 0.182,-0.279c0.466,-0.791 0.71,-1.848 0.742,-2.904c0.032,-1.053 -0.148,-2.108 -0.557,-2.898c-0.357,-0.688 -0.891,-1.171 -1.639,-1.171c-1.252,0 -2.294,0.747 -3.099,1.913c-1.303,1.887 -1.986,4.849 -1.878,7.854c0.139,3.871 0.971,7.816 0.517,9.833c-0.145,0.643 -0.418,1.116 -0.819,1.401c-0.284,0.202 -0.636,0.318 -1.075,0.318c-0.757,0 -1.415,-0.466 -1.955,-1.231c-0.687,-0.971 -1.202,-2.437 -1.614,-3.714c-0.259,-0.803 -0.476,-1.526 -0.678,-1.976c-0.008,-0.018 -0.017,-0.036 -0.027,-0.055l-0.023,0.033c-0.242,0.362 -0.514,0.945 -0.812,1.591c-0.562,1.219 -1.213,2.647 -1.883,3.397c-0.384,0.428 -0.795,0.653 -1.187,0.653c-0.461,-0 -0.86,-0.315 -1.095,-0.991c-0.363,-1.043 -0.398,-3.136 -0.373,-5.507c0.031,-2.93 0.14,-6.299 -0.292,-8.525c-0.132,-0.679 -0.31,-1.246 -0.572,-1.639c-0.194,-0.292 -0.432,-0.476 -0.753,-0.476c-0.554,0 -0.939,0.477 -1.25,1.115c-0.573,1.177 -0.817,2.939 -0.789,4.383c0.046,2.394 0.856,3.916 0.856,3.916c0.12,0.223 0.037,0.503 -0.187,0.623c-0.224,0.121 -0.504,0.037 -0.624,-0.187c-0,0 -0.915,-1.682 -0.966,-4.334c-0.031,-1.584 0.253,-3.513 0.882,-4.804c0.491,-1.008 1.205,-1.633 2.078,-1.633c0.976,0 1.668,0.77 2.053,2.116c0.48,1.677 0.536,4.297 0.515,6.917c-0.023,2.956 -0.147,5.912 0.204,7.42c0.05,0.215 0.108,0.395 0.183,0.534c0.041,0.075 0.063,0.15 0.13,0.15c0.095,0 0.184,-0.057 0.278,-0.132c0.158,-0.125 0.312,-0.306 0.466,-0.522c0.532,-0.746 1.036,-1.878 1.49,-2.86c0.381,-0.828 0.735,-1.555 1.03,-1.92c0.237,-0.291 0.491,-0.402 0.69,-0.402c0.185,0 0.408,0.091 0.597,0.357c0.189,0.269 0.398,0.815 0.623,1.502c0.402,1.231 0.892,2.956 1.605,4.137c0.39,0.646 0.821,1.143 1.4,1.143c0.444,-0 0.715,-0.223 0.874,-0.606c0.139,-0.337 0.205,-0.771 0.23,-1.281c0.104,-2.131 -0.53,-5.447 -0.648,-8.711c-0.115,-3.22 0.644,-6.388 2.041,-8.41c0.994,-1.44 2.312,-2.311 3.857,-2.311c0.894,0 1.605,0.429 2.125,1.132c0.697,0.943 1.036,2.413 0.992,3.886c-0.045,1.47 -0.47,2.935 -1.238,3.876c-0.214,0.262 -0.454,0.486 -0.719,0.662c-0.103,0.885 -0.262,1.839 -0.428,2.793c-0.351,2.015 -0.734,4.029 -0.606,5.318c0.059,0.586 0.181,1.015 0.649,1.015c0.448,0 0.795,-0.335 1.124,-0.782c0.412,-0.56 0.768,-1.309 1.115,-2.055c0.448,-0.967 0.883,-1.931 1.37,-2.55c0.415,-0.527 0.886,-0.821 1.396,-0.821c0.339,0 0.646,0.218 0.806,0.715c0.196,0.611 0.195,1.808 0.187,3.006c-0.006,0.94 -0.014,1.879 0.114,2.481c0.017,0.084 0.053,0.181 0.082,0.251c0.007,-0.007 0.014,-0.013 0.02,-0.02c0.114,-0.122 0.227,-0.301 0.344,-0.518c0.41,-0.762 0.829,-1.954 1.259,-3.145c0.53,-1.464 1.081,-2.925 1.633,-3.672c0.339,-0.461 0.717,-0.679 1.06,-0.679c0.356,-0 0.661,0.209 0.841,0.68c0.231,0.603 0.258,1.814 0.238,3.185c-0.024,1.633 -0.097,3.51 0.175,4.75c0.063,0.287 0.143,0.535 0.254,0.729c0.105,0.183 0.234,0.311 0.429,0.311c0.151,-0 0.309,-0.112 0.493,-0.267c0.405,-0.342 0.851,-0.921 1.32,-1.658c0.598,-0.942 1.224,-2.134 1.826,-3.446c-0.209,-1.295 -0.308,-2.736 -0.3,-4.178c0.006,-1.079 0.072,-2.157 0.196,-3.174c-2.602,0.145 -3.897,0.371 -3.897,0.371c-0.2,0.035 -0.391,-0.099 -0.426,-0.3c-0.035,-0.2 0.099,-0.391 0.299,-0.426c0,-0 1.371,-0.241 4.126,-0.388c0.255,-1.663 0.669,-3.107 1.222,-4.038c0.501,-0.843 1.134,-1.293 1.825,-1.293c0.594,0 1.009,0.366 1.185,1.101c0.181,0.757 0.086,2.007 -0.23,3.514c-0.041,0.197 -0.086,0.399 -0.135,0.605c1.747,-0.011 3.78,0.024 6.102,0.138c0.203,0.009 0.36,0.182 0.35,0.385c-0.01,0.204 -0.183,0.36 -0.386,0.351c-2.393,-0.117 -4.476,-0.15 -6.25,-0.136c-0.621,2.375 -1.631,5.164 -2.728,7.594c0.167,0.941 0.399,1.789 0.701,2.475c0.405,0.92 0.901,1.553 1.606,1.553c0.797,-0 1.583,-0.417 2.299,-1.042c-0.661,-1.271 -0.816,-2.91 -0.601,-4.38c0.17,-1.163 0.571,-2.206 1.1,-2.857c0.425,-0.522 0.937,-0.808 1.481,-0.808c0.588,-0 1.024,0.187 1.338,0.491c0.437,0.424 0.641,1.113 0.595,1.957c-0.092,1.687 -1.173,4.055 -2.673,5.674l-0.064,0.068c0.539,0.669 1.334,1.103 2.45,1.103c0.787,-0 1.563,-0.496 2.263,-1.211c1.141,-1.164 2.064,-2.927 2.434,-4.459l0.011,-0.046c-0.229,0.034 -0.454,0.056 -0.668,0.056c-1.459,0 -2.029,-1.284 -1.797,-2.319c0.162,-0.724 0.704,-1.314 1.57,-1.314c0.586,-0 1.025,0.189 1.344,0.5c0.434,0.423 0.648,1.106 0.631,1.943c0.508,-0.111 1.005,-0.213 1.444,-0.213c0.239,0 0.431,0.109 0.552,0.361c0.067,0.14 0.109,0.377 0.098,0.692c-0.019,0.556 -0.18,1.45 -0.353,2.443c-0.243,1.402 -0.513,3.013 -0.357,4.078c0.068,0.463 0.184,0.825 0.578,0.825c0.023,0 0.047,-0.018 0.077,-0.034c0.084,-0.044 0.175,-0.11 0.276,-0.194c0.368,-0.31 0.817,-0.832 1.31,-1.5c0.595,-0.803 1.248,-1.811 1.896,-2.92c-0.197,-3.248 -0.136,-7.661 0.796,-10.103c0.5,-1.311 1.275,-2.077 2.278,-2.077c0.479,-0 0.847,0.142 1.124,0.382c0.27,0.234 0.457,0.57 0.553,1c0.155,0.696 0.064,1.68 -0.227,2.826c-0.607,2.392 -2.069,5.544 -3.588,8.188c0.007,0.102 0.014,0.202 0.021,0.301c0.056,0.77 0.125,1.452 0.197,1.994c0.257,-0.834 0.607,-1.91 1.181,-2.792c0.654,-1.007 1.591,-1.764 2.965,-1.764c0.63,0 1.165,0.341 1.555,0.902c0.292,0.421 0.499,0.973 0.601,1.561c0.723,-0.396 1.441,-0.837 2.056,-1.354c-0.01,-0.175 -0.017,-0.353 -0.02,-0.532c-0.045,-2.645 0.667,-5.748 1.777,-7.374c0.561,-0.822 1.24,-1.282 1.95,-1.282c0.412,0 0.724,0.131 0.956,0.348c0.31,0.29 0.483,0.766 0.475,1.39c-0.025,1.887 -1.745,5.391 -4.032,7.685c-0.05,0.05 -0.101,0.1 -0.154,0.149c0.075,0.772 0.232,1.467 0.488,2.014c0.294,0.627 0.717,1.049 1.342,1.049c0.332,-0 0.627,-0.194 0.904,-0.437c0.345,-0.303 0.653,-0.695 0.928,-1.042c0.302,-0.382 0.574,-0.714 0.803,-0.882c0.183,-0.134 0.361,-0.191 0.518,-0.191c0.159,0 0.317,0.061 0.441,0.235c0.047,0.065 0.095,0.164 0.131,0.297c0.046,0.169 0.082,0.429 0.121,0.74c0.071,0.557 0.155,1.301 0.399,1.904c0.186,0.459 0.461,0.845 0.984,0.845c0.626,0 1.136,-0.433 1.542,-1.044c0.319,-0.481 0.57,-1.075 0.744,-1.71c-0.23,0.038 -0.463,0.059 -0.694,0.059c-2.338,0 -3.215,-2.094 -2.895,-3.785c0.224,-1.183 1.029,-2.134 2.249,-2.134c1.607,0 2.46,1.539 2.537,3.475c0.014,0.355 0.003,0.721 -0.032,1.09c0.403,-0.165 0.768,-0.348 1.064,-0.49c0.414,-0.196 0.737,-0.311 0.907,-0.311c0.197,0 0.384,0.086 0.516,0.319c0.09,0.159 0.157,0.481 0.208,0.889c0.064,0.512 0.127,1.195 0.358,1.75c0.176,0.422 0.46,0.765 1.001,0.765c0.677,0 1.235,-0.424 1.677,-1.033c0.319,-0.441 0.577,-0.979 0.766,-1.555c-0.233,0.039 -0.463,0.06 -0.687,0.06c-2.323,0 -3.258,-2.097 -2.893,-3.786c0.25,-1.162 1.101,-2.117 2.488,-2.117c1.549,0 2.364,1.514 2.389,3.423c0.005,0.356 -0.017,0.725 -0.064,1.095c0.857,-0.365 1.704,-0.885 2.431,-1.333c0.65,-0.4 1.21,-0.752 1.611,-0.928c0.24,-0.106 0.442,-0.154 0.594,-0.154c0.301,0 0.559,0.171 0.648,0.604c0.078,0.382 -0.012,1.148 -0.146,2.015c-0.152,0.987 -0.351,2.122 -0.285,2.872c0.01,0.119 0.027,0.226 0.056,0.318c0.012,0.038 0.014,0.079 0.03,0.102c0.032,-0.03 0.078,-0.077 0.111,-0.118c0.093,-0.12 0.19,-0.274 0.291,-0.455c0.425,-0.756 0.913,-1.937 1.431,-3.117c0.635,-1.447 1.323,-2.888 1.987,-3.626c0.383,-0.425 0.785,-0.637 1.155,-0.637c0.271,0 0.479,0.122 0.621,0.365c0.108,0.183 0.173,0.486 0.169,0.884c-0.009,0.741 -0.229,1.9 -0.44,3.057c-0.198,1.088 -0.39,2.176 -0.351,2.872c0.006,0.104 0.034,0.225 0.054,0.303c0.022,-0.015 0.044,-0.032 0.062,-0.049c0.082,-0.075 0.164,-0.174 0.25,-0.288c0.382,-0.509 0.794,-1.306 1.225,-2.101c0.46,-0.851 0.943,-1.699 1.421,-2.243c0.414,-0.471 0.854,-0.723 1.261,-0.723c0.316,-0 0.59,0.182 0.724,0.621c0.145,0.471 0.114,1.417 0.04,2.489c-0.086,1.249 -0.218,2.685 -0.064,3.634c0.034,0.207 0.08,0.387 0.151,0.526c0.047,0.092 0.098,0.167 0.194,0.167c0.134,0 0.254,-0.086 0.381,-0.205c0.198,-0.185 0.387,-0.454 0.574,-0.781c0.628,-1.097 1.201,-2.799 1.73,-4.452c0.861,-2.689 2.525,-5.207 6.484,-5.352l0.053,-0.245c0.023,-0.11 0.131,-0.18 0.241,-0.157l0.246,0.052c0.11,0.024 0.18,0.132 0.156,0.242l-0.043,0.203c0.002,0.002 0.004,0.004 0.006,0.006l0.193,0.038l0.045,-0.215c0.033,-0.151 0.181,-0.247 0.333,-0.215l0.344,0.073c0.151,0.033 0.248,0.182 0.216,0.333l-0.043,0.2l0.183,0.036l0.04,-0.203c0.034,-0.176 0.203,-0.292 0.379,-0.261l3.111,0.535c0.183,0.031 0.304,0.207 0.268,0.389l-0.01,0.049l0.022,0.004c0.092,0.018 0.159,0.091 0.174,0.178l2.744,0.54c0.126,0.025 0.225,0.108 0.276,0.215l0.932,0.111l0.26,0.346l-0.06,0.307l-0.372,0.221l-0.902,-0.253c-0.088,0.082 -0.213,0.122 -0.339,0.097l-2.745,-0.541c-0.047,0.075 -0.136,0.117 -0.228,0.099l-0.022,-0.005l-0.009,0.049c-0.036,0.182 -0.215,0.299 -0.395,0.259l-3.082,-0.685c-0.175,-0.039 -0.287,-0.21 -0.252,-0.386l0.04,-0.203l-0.196,-0.039l-0.046,0.215c-0.032,0.151 -0.181,0.247 -0.333,0.215l-0.344,-0.073c-0.151,-0.033 -0.248,-0.181 -0.216,-0.333l0.043,-0.2l-0.199,-0.039l-0.047,0.217c-0.023,0.11 -0.132,0.18 -0.241,0.157l-0.246,-0.053c-0.11,-0.023 -0.18,-0.131 -0.156,-0.241l0.022,-0.106Zm-46.36,7.782c-0.347,0.179 -0.68,0.351 -0.985,0.52c-0.455,0.252 -0.846,0.493 -1.121,0.745c-0.185,0.169 -0.322,0.327 -0.322,0.517c-0,0.259 0.154,0.471 0.334,0.603c0.106,0.077 0.222,0.132 0.326,0.132c0.298,-0 0.584,-0.236 0.851,-0.55c0.433,-0.507 0.783,-1.247 0.917,-1.967Zm-20.798,-0.537c0.981,-1.103 1.755,-2.549 2.11,-3.83c0.175,-0.629 0.249,-1.215 0.182,-1.692c-0.04,-0.285 -0.128,-0.527 -0.298,-0.692c-0.161,-0.156 -0.393,-0.231 -0.696,-0.231c-0.289,-0 -0.54,0.19 -0.766,0.467c-0.444,0.548 -0.761,1.432 -0.904,2.41c-0.172,1.177 -0.095,2.51 0.372,3.568Zm34.264,-1.135c0.066,-0.463 0.092,-0.928 0.074,-1.373c-0.029,-0.739 -0.176,-1.42 -0.48,-1.913c-0.253,-0.411 -0.623,-0.677 -1.136,-0.677c-0.759,0 -1.204,0.648 -1.344,1.385c-0.225,1.188 0.348,2.692 1.99,2.692c0.3,0 0.602,-0.043 0.896,-0.114Zm7.71,-0.972c0.089,-0.478 0.132,-0.962 0.126,-1.422c-0.009,-0.72 -0.136,-1.384 -0.417,-1.864c-0.23,-0.394 -0.572,-0.649 -1.051,-0.649c-0.896,0 -1.426,0.64 -1.588,1.391c-0.255,1.181 0.368,2.67 1.993,2.67c0.305,0 0.619,-0.046 0.937,-0.126Zm-26.871,-0.803c1.207,-2.259 2.286,-4.725 2.781,-6.673c0.247,-0.974 0.353,-1.808 0.221,-2.399c-0.047,-0.214 -0.124,-0.389 -0.258,-0.505c-0.127,-0.11 -0.301,-0.157 -0.52,-0.157c-0.668,-0 -1.084,0.612 -1.417,1.484c-0.763,1.998 -0.9,5.365 -0.807,8.25Zm9.561,-0.297c1.607,-1.785 2.861,-4.137 3.22,-5.804c0.093,-0.434 0.126,-0.815 0.073,-1.117c-0.026,-0.151 -0.07,-0.277 -0.158,-0.36c-0.078,-0.073 -0.189,-0.1 -0.327,-0.1c-0.276,0 -0.53,0.146 -0.77,0.375c-0.303,0.289 -0.575,0.704 -0.819,1.201c-0.745,1.519 -1.203,3.777 -1.219,5.805Zm-28.18,-6.681c-0.686,0.013 -1.319,0.033 -1.9,0.058c-0.129,1.027 -0.198,2.125 -0.204,3.224c-0.005,0.852 0.028,1.703 0.1,2.521c0.8,-1.927 1.514,-3.98 2.004,-5.803Zm11.319,5.154c0.019,-0.269 0.012,-0.522 -0.025,-0.75c-0.048,-0.298 -0.143,-0.55 -0.32,-0.722c-0.165,-0.161 -0.399,-0.239 -0.701,-0.239c-0.379,-0 -0.6,0.278 -0.671,0.595c-0.118,0.527 0.154,1.196 0.898,1.196c0.261,0 0.537,-0.032 0.819,-0.08Zm-30.601,-3.909c0.075,-0.787 0.087,-1.496 -0.009,-2.064c-0.105,-0.616 -0.335,-1.046 -0.901,-1.046c-0.52,-0 -0.842,0.533 -0.985,1.111c-0.229,0.925 0.039,2.119 1.248,2.119c0.233,0 0.448,-0.042 0.647,-0.12Zm19.473,-1.985c0.067,-0.276 0.128,-0.544 0.182,-0.805c0.28,-1.335 0.397,-2.44 0.236,-3.111c-0.053,-0.222 -0.109,-0.394 -0.289,-0.394c-0.248,0 -0.466,0.135 -0.67,0.349c-0.268,0.282 -0.5,0.693 -0.706,1.194c-0.317,0.77 -0.563,1.742 -0.737,2.823c0.606,-0.025 1.267,-0.045 1.984,-0.056Z" style="fill:rgb(131,133,136);"/>
            <path d="M836.608,218.535c0.037,-0.184 0.055,-0.348 0.055,-0.495c0,-0.476 -0.171,-0.864 -0.513,-1.163c-0.341,-0.299 -0.866,-0.448 -1.575,-0.448c-0.28,-0 -0.555,0.03 -0.824,0.091c-0.268,0.061 -0.506,0.156 -0.714,0.284c-0.208,0.128 -0.372,0.29 -0.495,0.485c-0.122,0.196 -0.183,0.422 -0.183,0.678c0,0.427 0.18,0.763 0.541,1.007c0.36,0.244 0.943,0.434 1.749,0.568c1.135,0.183 2.03,0.546 2.683,1.09c0.653,0.543 0.98,1.333 0.98,2.371c-0,0.696 -0.126,1.319 -0.376,1.868c-0.25,0.55 -0.604,1.02 -1.062,1.41c-0.458,0.391 -1.01,0.69 -1.658,0.898c-0.647,0.207 -1.373,0.311 -2.179,0.311c-0.769,-0 -1.441,-0.101 -2.015,-0.302c-0.573,-0.202 -1.047,-0.476 -1.419,-0.824c-0.372,-0.348 -0.65,-0.754 -0.833,-1.218c-0.183,-0.464 -0.275,-0.965 -0.275,-1.502c-0,-0.159 0.006,-0.317 0.018,-0.476c0.012,-0.159 0.037,-0.324 0.074,-0.495l0.091,-0.421l2.418,0l-0.074,0.312c-0.048,0.232 -0.073,0.494 -0.073,0.787c0,0.586 0.186,1.044 0.559,1.374c0.372,0.329 0.931,0.494 1.675,0.494c0.806,0 1.435,-0.168 1.887,-0.504c0.452,-0.335 0.678,-0.796 0.678,-1.382c-0,-0.464 -0.193,-0.824 -0.577,-1.081c-0.385,-0.256 -1.029,-0.451 -1.933,-0.586c-0.427,-0.061 -0.845,-0.171 -1.254,-0.329c-0.409,-0.159 -0.772,-0.379 -1.09,-0.66c-0.317,-0.281 -0.574,-0.625 -0.769,-1.034c-0.195,-0.409 -0.293,-0.895 -0.293,-1.456c-0,-0.574 0.107,-1.108 0.32,-1.603c0.214,-0.494 0.532,-0.922 0.953,-1.282c0.421,-0.36 0.94,-0.641 1.557,-0.842c0.616,-0.202 1.327,-0.302 2.133,-0.302c0.684,-0 1.294,0.085 1.832,0.256c0.537,0.171 0.992,0.409 1.364,0.714c0.372,0.306 0.656,0.669 0.852,1.09c0.195,0.421 0.293,0.876 0.293,1.364c-0,0.135 -0.006,0.269 -0.019,0.403c-0.012,0.135 -0.036,0.287 -0.073,0.458l-0.073,0.33l-2.418,-0l0.055,-0.238Z" style="fill:rgb(131,133,136);fill-rule:nonzero;"/>
            <path d="M841.663,230.896l-2.307,0l2.252,-10.567l-0.183,-0.128l-0.842,0.623l-1.191,-1.648l0.989,-0.733c0.257,-0.183 0.522,-0.32 0.797,-0.412c0.275,-0.092 0.54,-0.137 0.796,-0.137c0.489,-0 0.916,0.14 1.283,0.421c0.366,0.281 0.592,0.665 0.677,1.154l0.33,-0c0.598,-1.05 1.575,-1.575 2.93,-1.575c0.415,-0 0.812,0.079 1.191,0.238c0.378,0.158 0.711,0.39 0.998,0.696c0.287,0.305 0.513,0.68 0.677,1.126c0.165,0.446 0.248,0.955 0.248,1.529c-0,0.72 -0.089,1.441 -0.266,2.161c-0.177,0.72 -0.455,1.364 -0.833,1.932c-0.379,0.568 -0.864,1.029 -1.456,1.383c-0.592,0.354 -1.304,0.531 -2.134,0.531c-0.391,-0 -0.732,-0.046 -1.026,-0.137c-0.293,-0.092 -0.543,-0.211 -0.75,-0.358c-0.208,-0.146 -0.379,-0.314 -0.513,-0.503c-0.135,-0.189 -0.226,-0.382 -0.275,-0.577l-0.33,-0l-1.062,4.981Zm3.517,-5.604c0.451,0 0.848,-0.082 1.19,-0.247c0.342,-0.165 0.626,-0.394 0.852,-0.687c0.226,-0.293 0.393,-0.641 0.503,-1.044c0.11,-0.402 0.165,-0.842 0.165,-1.318c0,-0.513 -0.165,-0.959 -0.494,-1.337c-0.33,-0.378 -0.788,-0.568 -1.374,-0.568c-0.415,0 -0.788,0.083 -1.117,0.247c-0.33,0.165 -0.611,0.394 -0.843,0.687c-0.232,0.293 -0.412,0.641 -0.54,1.044c-0.128,0.403 -0.192,0.843 -0.192,1.319c-0,0.574 0.165,1.034 0.494,1.382c0.33,0.348 0.782,0.522 1.356,0.522Z" style="fill:rgb(131,133,136);fill-rule:nonzero;"/>
            <path d="M853.678,223.443c-0.025,0.097 -0.037,0.201 -0.037,0.311c-0,0.439 0.168,0.806 0.504,1.099c0.335,0.293 0.778,0.439 1.327,0.439c0.574,0 1.032,-0.103 1.374,-0.311c0.342,-0.208 0.604,-0.452 0.787,-0.733l1.832,1.154c-0.147,0.244 -0.339,0.489 -0.577,0.733c-0.238,0.244 -0.531,0.467 -0.879,0.668c-0.348,0.202 -0.757,0.366 -1.227,0.495c-0.47,0.128 -1.017,0.192 -1.639,0.192c-0.562,-0 -1.078,-0.089 -1.548,-0.266c-0.47,-0.177 -0.873,-0.421 -1.209,-0.732c-0.335,-0.311 -0.598,-0.684 -0.787,-1.117c-0.189,-0.434 -0.284,-0.913 -0.284,-1.438c-0,-0.83 0.125,-1.611 0.375,-2.344c0.251,-0.733 0.614,-1.374 1.09,-1.923c0.476,-0.549 1.062,-0.983 1.758,-1.3c0.696,-0.318 1.496,-0.476 2.4,-0.476c0.634,-0 1.187,0.1 1.657,0.302c0.47,0.201 0.858,0.47 1.163,0.806c0.305,0.335 0.534,0.717 0.687,1.144c0.152,0.428 0.229,0.867 0.229,1.319c-0,0.146 -0.009,0.296 -0.028,0.448c-0.018,0.153 -0.052,0.351 -0.101,0.596l-0.201,0.934l-6.666,-0Zm2.893,-3.462c-0.574,0 -1.071,0.144 -1.492,0.431c-0.422,0.287 -0.736,0.638 -0.944,1.053l4.286,-0c-0,-0.464 -0.143,-0.827 -0.43,-1.09c-0.287,-0.262 -0.76,-0.394 -1.42,-0.394Z" style="fill:rgb(131,133,136);fill-rule:nonzero;"/>
            <path d="M870.637,225.054l0.183,0.128l0.879,-0.622l1.154,1.721l-1.081,0.733c-0.476,0.317 -0.976,0.476 -1.501,0.476c-0.464,-0 -0.88,-0.128 -1.246,-0.385c-0.366,-0.256 -0.598,-0.616 -0.696,-1.08l-0.329,-0c-0.11,0.207 -0.239,0.4 -0.385,0.577c-0.147,0.177 -0.327,0.329 -0.54,0.458c-0.214,0.128 -0.464,0.232 -0.751,0.311c-0.287,0.079 -0.626,0.119 -1.017,0.119c-0.476,-0 -0.915,-0.095 -1.318,-0.284c-0.403,-0.189 -0.754,-0.452 -1.053,-0.787c-0.3,-0.336 -0.535,-0.73 -0.706,-1.182c-0.171,-0.451 -0.256,-0.946 -0.256,-1.483c0,-0.818 0.11,-1.581 0.33,-2.289c0.219,-0.708 0.537,-1.328 0.952,-1.859c0.415,-0.531 0.925,-0.949 1.529,-1.255c0.605,-0.305 1.285,-0.457 2.042,-0.457c0.672,-0 1.203,0.134 1.594,0.403c0.39,0.268 0.653,0.622 0.787,1.062l0.33,-0l0.256,-1.209l2.308,0l-1.465,6.904Zm-4.432,0.238c0.439,0 0.83,-0.088 1.172,-0.265c0.342,-0.177 0.626,-0.412 0.851,-0.705c0.226,-0.293 0.4,-0.638 0.522,-1.035c0.123,-0.397 0.184,-0.815 0.184,-1.255c-0,-0.573 -0.165,-1.04 -0.495,-1.4c-0.33,-0.361 -0.769,-0.541 -1.319,-0.541c-0.439,0 -0.83,0.089 -1.172,0.266c-0.342,0.177 -0.629,0.412 -0.861,0.705c-0.231,0.293 -0.409,0.638 -0.531,1.035c-0.122,0.396 -0.183,0.815 -0.183,1.254c0,0.513 0.15,0.965 0.449,1.355c0.299,0.391 0.76,0.586 1.383,0.586Z" style="fill:rgb(131,133,136);fill-rule:nonzero;"/>
            <path d="M873.512,227.234l2.784,-13.076l2.308,-0l-1.557,7.325l0.439,0l3.682,-3.589l1.428,1.538l-3.37,3.15l0,0.33l1.466,2.417l0.219,-0l1.008,-0.696l1.117,1.612l-0.824,0.622c-0.306,0.232 -0.602,0.394 -0.889,0.486c-0.287,0.091 -0.564,0.137 -0.833,0.137c-0.391,-0 -0.745,-0.095 -1.062,-0.284c-0.318,-0.189 -0.58,-0.461 -0.788,-0.815l-1.648,-2.71l-0.421,-0l-0.751,3.553l-2.308,-0Z" style="fill:rgb(131,133,136);fill-rule:nonzero;"/>
            <path d="M899.482,220.348l-2.564,-0l0,-2.198l3.04,0l0.843,-3.992l2.308,-0l-0.843,3.992l3.15,0l0,2.198l-3.626,-0l-1.026,4.706l0.183,0.128l2.455,-1.684l1.153,1.721l-2.655,1.795c-0.464,0.317 -0.959,0.476 -1.484,0.476c-0.268,-0 -0.525,-0.046 -0.769,-0.137c-0.244,-0.092 -0.458,-0.223 -0.641,-0.394c-0.183,-0.171 -0.33,-0.379 -0.439,-0.623c-0.11,-0.244 -0.165,-0.519 -0.165,-0.824c-0,-0.098 0.006,-0.186 0.018,-0.265c0.012,-0.08 0.031,-0.187 0.055,-0.321l1.007,-4.578Z" style="fill:rgb(131,133,136);fill-rule:nonzero;"/>
            <path d="M916.918,221.556c-0,0.855 -0.122,1.646 -0.367,2.372c-0.244,0.726 -0.604,1.352 -1.08,1.877c-0.476,0.525 -1.071,0.937 -1.786,1.236c-0.714,0.299 -1.541,0.449 -2.481,0.449c-0.538,-0 -1.041,-0.079 -1.511,-0.238c-0.47,-0.159 -0.882,-0.394 -1.237,-0.705c-0.354,-0.312 -0.634,-0.693 -0.842,-1.145c-0.208,-0.452 -0.311,-0.964 -0.311,-1.538c-0,-0.94 0.146,-1.78 0.439,-2.518c0.293,-0.739 0.693,-1.365 1.2,-1.877c0.506,-0.513 1.105,-0.904 1.795,-1.172c0.689,-0.269 1.431,-0.403 2.225,-0.403c0.574,-0 1.105,0.088 1.593,0.265c0.489,0.177 0.907,0.424 1.255,0.742c0.348,0.317 0.619,0.702 0.815,1.154c0.195,0.451 0.293,0.952 0.293,1.501Zm-5.366,3.773c0.439,-0.012 0.845,-0.11 1.218,-0.293c0.372,-0.183 0.689,-0.424 0.952,-0.723c0.262,-0.3 0.467,-0.651 0.613,-1.053c0.147,-0.403 0.22,-0.831 0.22,-1.282c0,-0.635 -0.171,-1.115 -0.513,-1.438c-0.341,-0.324 -0.799,-0.485 -1.373,-0.485c-0.44,-0 -0.843,0.094 -1.209,0.283c-0.366,0.19 -0.684,0.44 -0.952,0.751c-0.269,0.312 -0.477,0.669 -0.623,1.072c-0.147,0.403 -0.22,0.824 -0.22,1.263c0,0.623 0.171,1.096 0.513,1.42c0.342,0.323 0.8,0.485 1.374,0.485Z" style="fill:rgb(131,133,136);fill-rule:nonzero;"/>
            <path d="M931.203,214.414l3.919,0l-1.245,9.193l-0.439,2.088l0.439,0l0.476,-2.197l2.564,-9.084l4.029,0l-2.728,12.82l-2.088,-0l1.795,-8.425l0.824,-2.857l-0.44,0l-3.278,11.282l-3.278,-0l1.446,-11.282l-0.439,0l-0.366,2.747l-1.832,8.535l-2.069,-0l2.71,-12.82Z" style="fill:rgb(131,133,136);fill-rule:nonzero;"/>
            <path d="M943.346,223.443c-0.025,0.097 -0.037,0.201 -0.037,0.311c0,0.439 0.168,0.806 0.504,1.099c0.335,0.293 0.778,0.439 1.328,0.439c0.573,0 1.031,-0.103 1.373,-0.311c0.342,-0.208 0.605,-0.452 0.788,-0.733l1.831,1.154c-0.146,0.244 -0.339,0.489 -0.577,0.733c-0.238,0.244 -0.531,0.467 -0.879,0.668c-0.348,0.202 -0.757,0.366 -1.227,0.495c-0.47,0.128 -1.016,0.192 -1.639,0.192c-0.562,-0 -1.078,-0.089 -1.548,-0.266c-0.47,-0.177 -0.873,-0.421 -1.208,-0.732c-0.336,-0.311 -0.599,-0.684 -0.788,-1.117c-0.189,-0.434 -0.284,-0.913 -0.284,-1.438c0,-0.83 0.125,-1.611 0.376,-2.344c0.25,-0.733 0.613,-1.374 1.089,-1.923c0.476,-0.549 1.063,-0.983 1.758,-1.3c0.696,-0.318 1.496,-0.476 2.4,-0.476c0.635,-0 1.187,0.1 1.657,0.302c0.47,0.201 0.858,0.47 1.163,0.806c0.305,0.335 0.534,0.717 0.687,1.144c0.153,0.428 0.229,0.867 0.229,1.319c-0,0.146 -0.009,0.296 -0.028,0.448c-0.018,0.153 -0.051,0.351 -0.1,0.596l-0.202,0.934l-6.666,-0Zm2.893,-3.462c-0.573,0 -1.071,0.144 -1.492,0.431c-0.421,0.287 -0.736,0.638 -0.943,1.053l4.285,-0c0,-0.464 -0.143,-0.827 -0.43,-1.09c-0.287,-0.262 -0.76,-0.394 -1.42,-0.394Z" style="fill:rgb(131,133,136);fill-rule:nonzero;"/>
            <path d="M878.365,800.667l0,2.935c-0.024,0 -0.049,0.001 -0.073,0.001c-4.264,-0 -7.725,-3.462 -7.725,-7.725c-0,-4.264 3.461,-7.725 7.725,-7.725c0.024,0 0.049,0 0.073,0l0,2.935c-0.013,0 -0.025,0 -0.038,0c-2.644,0 -4.79,2.146 -4.79,4.79c-0,2.643 2.146,4.79 4.79,4.79c0.013,-0 0.025,-0.001 0.038,-0.001Z" style="fill:rgb(13,13,13);"/>
            <path d="M927.542,791.766c1.369,-2.17 3.787,-3.613 6.54,-3.613c2.752,0 5.17,1.443 6.539,3.613c-1.398,0.837 -2.334,2.366 -2.334,4.112c0,1.746 0.936,3.275 2.334,4.112c-1.369,2.17 -3.787,3.613 -6.539,3.613c-2.753,-0 -5.171,-1.443 -6.54,-3.613c1.398,-0.837 2.334,-2.366 2.334,-4.112c0,-1.746 -0.936,-3.275 -2.334,-4.112Z" style="fill:rgb(13,13,13);"/>
            <path d="M925.125,800.667l-0,2.935c-0.025,0 -0.049,0.001 -0.073,0.001c-4.264,-0 -7.726,-3.462 -7.726,-7.725c0,-4.264 3.462,-7.725 7.726,-7.725c0.024,0 0.048,0 0.073,0l-0,2.935c-0.013,0 -0.026,0 -0.039,0c-2.644,0 -4.79,2.146 -4.79,4.79c0,2.643 2.146,4.79 4.79,4.79c0.013,-0 0.026,-0.001 0.039,-0.001Z" style="fill:rgb(13,13,13);"/>
            <path d="M875.318,861.71l0,2.935c0.025,0 0.049,0 0.073,0c4.264,0 7.726,-3.461 7.726,-7.725c-0,-4.263 -3.462,-7.724 -7.726,-7.724c-0.024,-0 -0.048,-0 -0.073,0l0,2.935c0.013,-0 0.026,-0 0.039,-0c2.643,-0 4.79,2.146 4.79,4.789c-0,2.644 -2.147,4.79 -4.79,4.79c-0.013,0 -0.026,0 -0.039,-0Z" style="fill:rgb(13,13,13);"/>
            <path d="M943.038,800.667l0,2.935c0.025,0 0.049,0.001 0.074,0.001c4.263,-0 7.725,-3.462 7.725,-7.725c-0,-4.264 -3.462,-7.725 -7.725,-7.725c-0.025,0 -0.049,0 -0.074,0l0,2.935c0.013,0 0.026,0 0.039,0c2.644,0 4.79,2.146 4.79,4.79c-0,2.643 -2.146,4.79 -4.79,4.79c-0.013,-0 -0.026,-0.001 -0.039,-0.001Z" style="fill:rgb(13,13,13);"/>
            <g id="Waves">
                <ellipse cx="889.418" cy="371.743" rx="14.084" ry="14.083" style="fill:rgb(131,133,136);"/>
                <ellipse cx="889.418" cy="371.743" rx="11.687" ry="11.687" style="fill:rgb(131,133,136);"/>
                <ellipse cx="889.534" cy="371.743" rx="39.802" ry="39.799" style="fill:rgb(131,133,136);"/>
                <path id="_2nd-circl" serif:id="2nd circl" d="M946.509,414.474c0.557,0.457 1.17,0.847 1.828,1.159c-11.713,15.659 -29.532,26.493 -49.913,28.958c0.014,-0.198 0.02,-0.398 0.02,-0.599c0,-0.532 -0.046,-1.053 -0.136,-1.56c19.667,-2.421 36.862,-12.87 48.201,-27.958Zm-113.884,0.088c11.34,15.042 28.504,25.452 48.124,27.869c-0.089,0.507 -0.136,1.029 -0.136,1.561c-0,0.201 0.007,0.401 0.02,0.598c-20.35,-2.465 -38.144,-13.272 -49.857,-28.897c0.664,-0.302 1.284,-0.683 1.849,-1.131Zm-10.731,-71.316c0.592,0.409 1.235,0.749 1.918,1.007c-3.548,8.461 -5.508,17.749 -5.508,27.49c0,9.757 1.967,19.058 5.526,27.533c-0.68,0.267 -1.32,0.616 -1.906,1.033c-3.72,-8.784 -5.777,-18.437 -5.777,-28.566c-0,-10.105 2.047,-19.735 5.747,-28.497Zm135.305,0.06c3.684,8.745 5.722,18.355 5.722,28.437c-0,10.093 -2.042,19.712 -5.737,28.472c-0.593,-0.406 -1.238,-0.742 -1.922,-0.997c3.543,-8.455 5.501,-17.738 5.501,-27.475c0,-9.72 -1.951,-18.987 -5.484,-27.435c0.684,-0.257 1.328,-0.594 1.92,-1.002Zm-10.669,-14.266c-11.465,-15.273 -28.929,-25.797 -48.884,-28.065c0.094,-0.498 0.144,-1.011 0.144,-1.536c-0,-0.209 -0.008,-0.417 -0.024,-0.621c20.669,2.311 38.755,13.221 50.596,29.069c-0.659,0.31 -1.273,0.699 -1.832,1.153Zm-115.787,-1.203c11.842,-15.821 29.911,-26.711 50.558,-29.019c-0.015,0.204 -0.023,0.412 -0.023,0.621c0,0.525 0.049,1.038 0.143,1.536c-19.929,2.265 -37.375,12.766 -48.845,28.013c-0.559,-0.454 -1.174,-0.842 -1.833,-1.151Z" style="fill:rgb(131,133,136);"/>
                <ellipse cx="889.5" cy="443.946" rx="8.962" ry="8.961" style="fill:rgb(131,133,136);"/>
                <ellipse cx="952.155" cy="335.956" rx="8.962" ry="8.961" style="fill:rgb(131,133,136);"/>
                <ellipse cx="952.155" cy="407.53" rx="8.962" ry="8.961" style="fill:rgb(131,133,136);"/>
                <ellipse cx="889.483" cy="299.54" rx="8.962" ry="8.961" style="fill:rgb(131,133,136);"/>
                <ellipse cx="826.913" cy="335.956" rx="8.962" ry="8.961" style="fill:rgb(131,133,136);"/>
                <ellipse cx="827.088" cy="407.53" rx="8.962" ry="8.961" style="fill:rgb(131,133,136);"/>
                <path id="Base1" serif:id="Base" d="M955.774,448.059l8.365,0c-19.026,18.629 -44.978,30.21 -73.61,30.501l5.912,-5.912c22.626,-1.555 43.216,-10.564 59.333,-24.589Zm-141.076,0l8.365,0c16.115,14.025 36.707,23.035 59.333,24.589l5.912,5.912c-28.636,-0.293 -54.587,-11.874 -73.61,-30.501Zm74.72,28.56l-3.801,-3.801c1.261,0.047 2.529,0.071 3.801,0.071c1.273,-0 2.541,-0.024 3.802,-0.071l-3.802,3.801Zm-96.449,-74.332c4.228,13.344 11.151,25.492 20.129,35.808l-0,8.364c-8.194,-8.367 -15.024,-18.074 -20.129,-28.758l0,-15.414Zm193.13,-0.74l-0,15.667c-5.13,10.877 -12.043,20.752 -20.36,29.245l0,-8.364c9.144,-10.505 16.156,-22.913 20.36,-36.548Zm-170.844,38.949c1.734,1.868 3.537,3.671 5.406,5.406l-5.406,-0l0,-5.406Zm148.327,5.406l-5.407,-0c1.869,-1.734 3.672,-3.536 5.407,-5.406l-0,5.406Zm22.517,-103.962c-4.203,-13.632 -11.215,-26.042 -20.36,-36.549l0,-8.364c8.317,8.492 15.229,18.365 20.36,29.243l-0,15.67Zm-193.13,-16.154c5.107,-10.687 11.936,-20.393 20.129,-28.759l-0,8.364c-8.978,10.315 -15.901,22.464 -20.129,35.806l0,-15.411Zm170.613,-28.202l-0,5.406c-1.734,-1.869 -3.537,-3.672 -5.407,-5.406l5.407,-0Zm-142.921,-0c-1.868,1.733 -3.671,3.536 -5.406,5.406l0,-5.406l5.406,-0Zm67.647,-32.658l-5.912,5.912c-22.627,1.555 -43.216,10.563 -59.333,24.589l-8.365,-0c19.026,-18.629 44.978,-30.211 73.61,-30.501Zm2.221,-0c28.635,0.292 54.587,11.874 73.61,30.501l-8.365,-0c-16.116,-14.026 -36.707,-23.035 -59.333,-24.589l-5.912,-5.912Zm2.691,5.741c-1.261,-0.047 -2.529,-0.07 -3.802,-0.07c-1.272,-0 -2.54,0.023 -3.801,0.07l3.801,-3.801l3.802,3.801Z" style="fill:rgb(131,133,136);"/>
                <path d="M895.81,439.178l49.168,-28.385c0.301,0.662 0.692,1.275 1.156,1.823l-49.264,28.441c-0.267,-0.677 -0.626,-1.308 -1.06,-1.879Zm-61.582,-28.306l49.03,28.306c-0.434,0.571 -0.793,1.202 -1.06,1.879l-49.147,-28.373c0.47,-0.544 0.868,-1.153 1.177,-1.812Zm-8.394,-67.107c0.353,0.048 0.713,0.073 1.079,0.073c0.366,0 0.726,-0.025 1.079,-0.073l-0,55.934c-0.297,-0.034 -0.599,-0.052 -0.904,-0.052c-0.427,0 -0.846,0.034 -1.254,0.1l0,-55.982Zm127.399,55.956c-0.352,-0.049 -0.713,-0.074 -1.078,-0.074c-0.366,0 -0.726,0.025 -1.079,0.074l-0,-55.956c0.353,0.048 0.713,0.073 1.079,0.073c0.365,0 0.726,-0.025 1.078,-0.073l0,55.956Zm-7.099,-68.851c-0.464,0.548 -0.855,1.161 -1.156,1.823l-49.204,-28.406c0.433,-0.572 0.789,-1.204 1.054,-1.883l49.306,28.466Zm-113.2,-0l49.222,-28.418c0.27,0.677 0.63,1.307 1.066,1.876l-49.132,28.365c-0.302,-0.662 -0.692,-1.275 -1.156,-1.823Z" style="fill:rgb(131,133,136);"/>
            </g>
        </g>
        <g id="Copper">
            <path id="Legend" d="M875.357,852.131c-2.644,-0 -4.79,2.146 -4.79,4.789c-0,2.644 2.146,4.79 4.79,4.79c2.643,0 4.79,-2.146 4.79,-4.79c-0,-2.643 -2.147,-4.789 -4.79,-4.789Zm2.97,-61.043c2.643,0 4.79,2.146 4.79,4.79c-0,2.643 -2.147,4.79 -4.79,4.79c-2.644,-0 -4.79,-2.147 -4.79,-4.79c-0,-2.644 2.146,-4.79 4.79,-4.79Zm46.759,0c2.644,0 4.79,2.146 4.79,4.79c0,2.643 -2.146,4.79 -4.79,4.79c-2.644,-0 -4.79,-2.147 -4.79,-4.79c0,-2.644 2.146,-4.79 4.79,-4.79Zm17.991,0c-2.644,0 -4.79,2.146 -4.79,4.79c0,2.643 2.146,4.79 4.79,4.79c2.644,-0 4.79,-2.147 4.79,-4.79c-0,-2.644 -2.146,-4.79 -4.79,-4.79Z" style="fill:rgb(131,133,136);"/>
            <path id="Volume-indicators" serif:id="Volume indicators" d="M946.938,627.285c7.106,0 12.875,5.769 12.875,12.875c-0,7.105 -5.769,12.874 -12.875,12.874c-7.106,0 -12.876,-5.769 -12.876,-12.874c0,-7.106 5.77,-12.875 12.876,-12.875Zm-115.987,10.943c1.066,0 1.931,0.866 1.931,1.932c0,1.065 -0.865,1.931 -1.931,1.931c-1.066,-0 -1.931,-0.866 -1.931,-1.931c-0,-1.066 0.865,-1.932 1.931,-1.932Zm140.537,-68.009c6.396,-0 11.588,5.192 11.588,11.587c-0,6.395 -5.192,11.587 -11.588,11.587c-6.395,-0 -11.588,-5.192 -11.588,-11.587c0,-6.395 5.193,-11.587 11.588,-11.587Zm-163.908,7.724c2.131,0 3.862,1.731 3.862,3.863c0,2.131 -1.731,3.862 -3.862,3.862c-2.132,0 -3.863,-1.731 -3.863,-3.862c0,-2.132 1.731,-3.863 3.863,-3.863Zm139.358,-64.413c5.329,0 9.656,4.327 9.656,9.656c0,5.329 -4.327,9.656 -9.656,9.656c-5.33,0 -9.657,-4.327 -9.657,-9.656c0,-5.329 4.327,-9.656 9.657,-9.656Zm-115.987,4.088c3.198,0 5.794,2.596 5.794,5.794c0,3.197 -2.596,5.793 -5.794,5.793c-3.198,0 -5.794,-2.596 -5.794,-5.793c0,-3.198 2.596,-5.794 5.794,-5.794Zm58.583,-25.487c4.264,0 7.725,3.462 7.725,7.725c0,4.264 -3.461,7.725 -7.725,7.725c-4.264,-0 -7.725,-3.461 -7.725,-7.725c-0,-4.263 3.461,-7.725 7.725,-7.725Z" style="fill:rgb(131,133,136);"/>
            <path d="M889.418,659.039l16.424,9.482l0,18.963l-16.424,9.482l-16.423,-9.482l-0,-18.963l16.423,-9.482Z" style="fill:rgb(131,133,136);"/>
            <path d="M898.901,661.579l9.482,16.423l-9.482,16.423l-18.965,0l-9.482,-16.423l9.482,-16.423l18.965,0Z" style="fill:rgb(131,133,136);"/>
        </g>
        <g>
            <g>
                <path d="M935.17,538.905c0.173,-0.173 0.173,-0.454 -0,-0.627l-2.445,-2.444c-0.176,-0.176 -0.462,-0.176 -0.638,-0l-43.971,43.968c-0.067,0.067 -0.067,0.175 0,0.242l2.836,2.835c0.066,0.067 0.175,0.067 0.241,-0l43.977,-43.974Z" style="fill:rgb(131,133,136);"/>
                <path d="M935.17,538.905c0.173,-0.173 0.173,-0.454 -0,-0.627l-2.445,-2.444c-0.176,-0.176 -0.462,-0.176 -0.638,-0l-43.971,43.968c-0.067,0.067 -0.067,0.175 0,0.242l2.836,2.835c0.066,0.067 0.175,0.067 0.241,-0l43.977,-43.974Z" style="fill:rgb(131,133,136);"/>
            </g>
            <ellipse cx="889.534" cy="581.806" rx="64.377" ry="64.373" style="fill:none;stroke:rgb(131,133,136);stroke-width:4.17px;"/>
        </g>
        <g id="Jack">
            <path d="M850.315,819.841c-0.143,0.248 -0.408,0.401 -0.694,0.4c-3.349,-0.003 -23.843,-0.025 -27.191,-0.028c-0.287,-0.001 -0.551,-0.154 -0.694,-0.402c-1.671,-2.901 -11.9,-20.66 -13.572,-23.562c-0.143,-0.248 -0.143,-0.553 0.001,-0.801c1.677,-2.898 11.942,-20.635 13.619,-23.534c0.144,-0.247 0.408,-0.4 0.694,-0.4c3.349,0.004 23.843,0.026 27.192,0.029c0.286,0 0.55,0.153 0.693,0.401c1.672,2.902 11.901,20.661 13.572,23.563c0.143,0.248 0.143,0.553 -0,0.801c-1.678,2.898 -11.942,20.635 -13.62,23.533Z" style="fill:rgb(254,255,254);stroke:rgb(17,18,24);stroke-width:4.17px;"/>
            <path d="M844.267,783.714c6.714,4.535 8.483,13.668 3.948,20.381c-4.536,6.714 -13.668,8.482 -20.382,3.947c-6.714,-4.535 -8.483,-13.668 -3.948,-20.382c4.535,-6.713 13.668,-8.482 20.382,-3.946Z" style="fill:rgb(131,133,136);"/>
            <path d="M845.796,781.449c7.964,5.38 10.062,16.213 4.683,24.176c-5.379,7.963 -16.212,10.061 -24.176,4.681c-7.964,-5.379 -10.062,-16.212 -4.683,-24.175c5.38,-7.964 16.213,-10.061 24.176,-4.682Zm-1.529,2.265c-6.714,-4.536 -15.847,-2.767 -20.382,3.946c-4.535,6.714 -2.766,15.847 3.948,20.382c6.714,4.535 15.846,2.767 20.382,-3.947c4.535,-6.713 2.766,-15.846 -3.948,-20.381Z" style="fill:rgb(131,133,136);"/>
        </g>
        <g id="Jack1" serif:id="Jack">
            <path d="M850.352,880.862c-0.143,0.248 -0.407,0.401 -0.694,0.401c-3.348,0.002 -23.842,0.012 -27.191,0.014c-0.286,-0 -0.55,-0.153 -0.694,-0.401c-1.675,-2.899 -11.932,-20.642 -13.608,-23.541c-0.143,-0.248 -0.143,-0.554 -0,-0.802c1.672,-2.9 11.909,-20.653 13.582,-23.554c0.143,-0.248 0.408,-0.401 0.694,-0.401c3.349,-0.002 23.842,-0.012 27.191,-0.014c0.286,0 0.551,0.153 0.694,0.401c1.676,2.899 11.932,20.642 13.608,23.541c0.144,0.248 0.144,0.553 0.001,0.801c-1.673,2.901 -11.91,20.654 -13.583,23.555Z" style="fill:rgb(254,255,254);stroke:rgb(17,18,24);stroke-width:4.17px;"/>
            <path d="M844.248,844.743c6.721,4.525 8.504,13.656 3.979,20.376c-4.525,6.721 -13.654,8.503 -20.375,3.978c-6.721,-4.525 -8.504,-13.655 -3.98,-20.375c4.525,-6.721 13.655,-8.504 20.376,-3.979Z" style="fill:rgb(131,133,136);"/>
            <path d="M845.774,842.477c7.972,5.367 10.087,16.197 4.72,24.168c-5.367,7.972 -16.197,10.087 -24.169,4.719c-7.971,-5.367 -10.086,-16.197 -4.719,-24.169c5.366,-7.971 16.196,-10.086 24.168,-4.718Zm-1.526,2.266c-6.721,-4.525 -15.851,-2.742 -20.376,3.979c-4.524,6.72 -2.741,15.85 3.98,20.375c6.721,4.525 15.85,2.743 20.375,-3.978c4.525,-6.72 2.742,-15.851 -3.979,-20.376Z" style="fill:rgb(131,133,136);"/>
        </g>
        <g id="Headphone-Jack" serif:id="Headphone Jack">
            <path d="M964.771,829.773l0.001,35.386l-30.646,17.693l-30.647,-17.693l-0.001,-35.386l30.646,-17.693l30.647,17.693Z" style="fill:none;stroke:rgb(17,18,24);stroke-width:4.17px;"/>
            <path d="M934.124,825.032c12.382,0 22.435,10.053 22.436,22.434c0,12.382 -10.052,22.434 -22.434,22.434c-12.383,-0 -22.436,-10.052 -22.436,-22.434c-0,-12.381 10.052,-22.434 22.434,-22.434Z" style="fill:rgb(131,133,136);"/>
            <path d="M934.124,820.866c14.682,-0 26.602,11.919 26.602,26.6c0.001,14.681 -11.919,26.601 -26.6,26.601c-14.682,-0 -26.602,-11.92 -26.603,-26.601c-0,-14.681 11.919,-26.6 26.601,-26.6Zm0,4.166c-12.382,0 -22.434,10.053 -22.434,22.434c0,12.382 10.053,22.434 22.436,22.434c12.382,-0 22.434,-10.052 22.434,-22.434c-0.001,-12.381 -10.054,-22.434 -22.436,-22.434Z" style="fill:rgb(131,133,136);"/>
        </g>
    </g>
    <g id="Left-in" serif:id="Left in">
        <circle cx="836.05" cy="795.878" r="17.286" style="fill:rgb(66,141,148);"/>
        <path d="M650.541,783.449l5.339,-0.002l0.142,-4.523l20.66,-0.007l-0.142,4.523l5.378,-0.002l0.162,-5.148l7.602,-0.003c0.484,-1.679 2.074,-2.924 3.918,-2.925l69.677,-0.023c2.178,-0.001 3.892,1.733 3.825,3.87l-0.061,1.925l2.711,-0.001l-0.195,6.207l41.795,-0.014l-0.025,0.782l5.183,-0.002c1.217,-0.001 2.174,0.968 2.136,2.161l0.018,-0.564l14.749,-0.82l5.405,4.367l-0.155,5.234l-5.543,4.347l-14.823,-1.454l-0.009,0.276c-0.037,1.193 -1.055,2.163 -2.271,2.163l-5.184,0.002l-0.016,0.507l-41.794,0.015l-0.195,6.192l-2.711,0.001l-0.062,1.988c-0.067,2.137 -1.89,3.872 -4.068,3.872l-69.677,0.024c-1.775,0 -3.241,-1.151 -3.687,-2.734l-7.655,0.003l0.167,-5.313l-5.379,0.002l-0.144,4.578l-20.66,0.007l0.144,-4.578l-5.339,0.002l0.754,-24.002l-0.898,28.58l-19.526,0.007c-0.632,0 -1.129,-0.503 -1.109,-1.122l0.365,-31.791c0.02,-0.62 0.548,-1.123 1.18,-1.123l20.16,-0.007l-0.142,4.523Zm-21.305,0.007l-0.15,24.935l0.15,-24.935Z" style="fill:rgb(66,141,148);"/>
        <path d="M626.037,795.795l0.074,-12.358l0.068,0l0.039,-3.417c0.001,-0.021 0.001,-0.042 0.002,-0.063c0.071,-2.274 1.984,-4.149 4.302,-4.149l20.16,-0.007c0.846,-0.001 1.656,0.342 2.245,0.95c0.162,0.168 0.305,0.352 0.425,0.549c0.549,-0.901 1.541,-1.501 2.669,-1.501l20.66,-0.007c0.846,-0 1.656,0.342 2.245,0.95c0.1,0.103 0.192,0.213 0.276,0.328c0.476,-1.122 1.588,-1.905 2.877,-1.905c0,-0 5.725,-0.002 5.725,-0.002c1.316,-1.766 3.435,-2.925 5.795,-2.926l69.677,-0.023c3.532,-0.001 6.371,2.521 6.873,5.819c0.699,0.09 1.351,0.413 1.847,0.925c0.589,0.607 0.906,1.427 0.88,2.273l-0.094,2.983l38.568,-0.013c0.765,-0 1.499,0.279 2.068,0.781l3.091,-0.001c1.466,-0.001 2.773,0.574 3.718,1.505l13.013,-0.724c0.773,-0.043 1.535,0.203 2.138,0.69l5.404,4.368c0.76,0.614 1.189,1.547 1.16,2.523l-0.156,5.234c-0.027,0.927 -0.465,1.794 -1.195,2.366l-5.543,4.347c-0.633,0.496 -1.433,0.729 -2.233,0.651l-12.439,-1.22c-0.986,1.338 -2.578,2.219 -4.358,2.22l-3.492,0.001c-0.491,0.322 -1.078,0.508 -1.708,0.508c0,0 -38.767,0.014 -38.767,0.014l-0.099,3.167c-0.051,1.606 -1.307,2.897 -2.884,3.017c-0.606,3.309 -3.572,5.869 -7.08,5.87l-69.677,0.024c-2.299,0.001 -4.303,-1.075 -5.561,-2.733l-5.781,0.002c-0.846,-0 -1.656,-0.343 -2.245,-0.95c-0.279,-0.288 -0.497,-0.624 -0.646,-0.987c-0.573,0.734 -1.465,1.204 -2.465,1.204l-20.66,0.007c-0.846,0.001 -1.656,-0.342 -2.244,-0.949c-0.163,-0.169 -0.306,-0.353 -0.425,-0.55c-0.55,0.902 -1.541,1.501 -2.67,1.501l-19.526,0.007c-2.416,0.001 -4.289,-1.943 -4.235,-4.303l0.184,-15.996Zm192.251,8.983l0.246,-0.237l-0.018,-0.002l-0.228,0.239Zm-168.531,3.606l5.339,-0.002l-0.144,4.578l20.66,-0.007l0.144,-4.578l5.379,-0.002l-0.167,5.313l7.655,-0.003c0.446,1.583 1.912,2.734 3.687,2.734l69.677,-0.024c2.178,-0 4.001,-1.735 4.068,-3.872l0.062,-1.988l2.711,-0.001l0.195,-6.192l41.794,-0.015l0.016,-0.507l5.184,-0.002c0.005,-0 0.01,-0 0.016,-0c0.004,0.004 0.007,0.008 0.011,0.012c0.589,0.607 1.399,0.95 2.244,0.95l-1.193,-1.234c0.059,-0.032 0.116,-0.066 0.172,-0.102l1.03,1.06l2.935,-2.837l0.014,0.002l-2.685,2.824c0.009,-0 0.017,-0.001 0.026,-0.002l2.811,-2.724c0.003,-0.028 0.007,-0.055 0.009,-0.083l11.713,1.149l5.543,-4.347l0.155,-5.234l-5.405,-4.367l-14.749,0.82l-0.018,0.564c0.038,-1.193 -0.919,-2.162 -2.136,-2.161l-5.183,0.002l0.025,-0.782l-41.795,0.014l0.195,-6.207l-2.711,0.001l0.061,-1.925c0.067,-2.137 -1.647,-3.871 -3.825,-3.87l-69.677,0.023c-1.844,0.001 -3.434,1.246 -3.918,2.925l-7.602,0.003l-0.162,5.148l-5.378,0.002l0.142,-4.523l-20.66,0.007l-0.142,4.523l-5.339,0.002l0.142,-4.523l-20.16,0.007c-0.632,-0 -1.16,0.503 -1.18,1.123l-0.365,31.791c-0.02,0.619 0.477,1.122 1.109,1.122l19.526,-0.007l0.144,-4.578Z" style="fill:white;"/>
        <rect x="811.202" y="788.212" width="3.964" height="15.71" style="fill:rgb(35,31,32);"/>
        <rect x="222.898" y="786.015" width="409.563" height="19.934" style="fill:rgb(66,141,148);"/>
    </g>
    <g id="Interface--split-mono-" serif:id="Interface (split mono)">
        <g id="Interface">
            <path d="M1433.76,357.865c0,-2.15 -1.746,-3.897 -3.897,-3.897l-298.022,0c-2.151,0 -3.897,1.747 -3.897,3.897l-0,70.15c-0,2.15 1.746,3.897 3.897,3.897l298.022,-0c2.151,-0 3.897,-1.747 3.897,-3.897l0,-70.15Z" style="fill:none;stroke:rgb(35,31,32);stroke-width:4.17px;"/>
            <circle cx="1170.87" cy="392.94" r="22.294" style="fill:none;stroke:rgb(35,31,32);stroke-width:4.17px;"/>
            <circle cx="1239.24" cy="392.94" r="22.294" style="fill:none;stroke:rgb(35,31,32);stroke-width:4.17px;"/>
            <circle cx="1398.36" cy="392.94" r="12.508" style="fill:none;stroke:rgb(131,133,136);stroke-width:4.17px;"/>
        </g>
        <path d="M1190.29,848.418c76.512,-0 104.772,-22.192 104.825,-49.165c0.043,-22.077 -23.578,-35.759 -79.886,-47.756c-45.335,-9.659 -44.366,-68.745 -44.366,-105.33" style="fill:none;stroke:rgb(35,31,32);stroke-width:16.67px;"/>
        <path d="M1190.29,848.418c76.512,-0 104.772,-22.192 104.825,-49.165c0.017,-9.093 -3.979,-16.761 -12.62,-23.475c-3.804,-2.955 -30.338,-19.164 -36.233,-32.386c-11.362,-25.483 -8.445,-58.936 -7.396,-83.903c0.172,-4.1 0.373,-35.594 0.373,-39.164" style="fill:none;stroke:rgb(35,31,32);stroke-width:16.67px;"/>
        <g id="Jack2" serif:id="Jack">
            <path d="M1161.41,865.317l-6.574,0.002l-0.175,6.15l-25.438,0.009l0.175,-6.149l-6.622,0.002l-0.2,7.001l-9.36,0.003c-0.596,2.283 -2.553,3.976 -4.824,3.977l-85.792,0.031c-2.682,0.001 -4.791,-2.356 -4.709,-5.261l0.075,-2.617l-3.338,0.001l0.24,-8.44l-51.461,0.019l0.03,-1.062l-6.382,0.002c-1.497,0 -2.676,-1.316 -2.63,-2.939l-0.022,0.768l-18.16,1.115l-6.655,-5.939l0.191,-7.116l6.826,-5.91l18.25,1.976l0.011,-0.375c0.046,-1.622 1.299,-2.94 2.797,-2.94l6.382,-0.003l0.02,-0.69l51.46,-0.019l0.24,-8.42l3.338,-0.002l0.077,-2.702c0.083,-2.905 2.327,-5.264 5.008,-5.265l85.792,-0.032c2.186,-0.001 3.991,1.565 4.54,3.717l9.426,-0.004l-0.206,7.223l6.623,-0.002l0.177,-6.225l25.438,-0.01l-0.177,6.225l6.574,-0.002l-0.928,32.634l1.105,-38.859l24.043,-0.009c0.778,-0.001 1.389,0.683 1.365,1.526l-0.45,43.224c-0.024,0.843 -0.674,1.527 -1.452,1.527l-24.823,0.01l0.175,-6.15Zm26.232,-0.01l0.185,-33.903l-0.185,33.903Z" style="fill:rgb(35,31,32);"/>
            <path d="M952.56,837.549c1.05,-1.836 2.986,-3.049 5.101,-3.049l4.443,-0.002c0.536,-0.432 1.218,-0.691 1.959,-0.691l48.424,-0.018l0.153,-5.385c0.048,-1.69 1.432,-3.036 3.123,-3.036l0.308,-0.001c0.295,-4.485 3.93,-7.967 8.115,-7.968l85.792,-0.032c2.75,-0.001 5.172,1.453 6.572,3.716l7.394,-0.003c0.844,0 1.653,0.342 2.241,0.947c0.589,0.605 0.908,1.423 0.884,2.267l-0.114,4.008c-0,0 0.369,0 0.369,0l0.091,-3.19c0.048,-1.69 1.432,-3.036 3.123,-3.036l25.438,-0.01c0.845,0 1.653,0.342 2.242,0.947c0.588,0.605 0.907,1.423 0.883,2.267l-0.086,3.01l0.322,0l0.091,-3.19c0.048,-1.69 1.431,-3.035 3.122,-3.036l24.043,-0.009c2.469,-0.001 4.549,2.036 4.491,4.703l-0.227,21.76l-0.091,16.806c0.001,-0.242 -0.025,-0.478 -0.076,-0.705l-0.056,5.344c-0,0.019 -0,0.038 -0.001,0.056c-0.073,2.583 -2.191,4.562 -4.575,4.563l-24.822,0.01c-0.845,-0 -1.653,-0.342 -2.242,-0.947c-0.589,-0.605 -0.907,-1.423 -0.883,-2.267l0.083,-2.935l-0.321,0l-0.089,3.115c-0.048,1.69 -1.432,3.035 -3.122,3.036l-25.439,0.009c-0.844,0.001 -1.653,-0.341 -2.241,-0.946c-0.589,-0.606 -0.908,-1.423 -0.884,-2.267l0.084,-2.935l-0.37,0l-0.113,3.965c-0.048,1.691 -1.432,3.036 -3.122,3.037c-0,-0 -7.327,0.002 -7.327,0.002c-1.466,2.407 -4.034,3.977 -6.858,3.978l-85.792,0.031c-4.197,0.002 -7.663,-3.418 -7.831,-7.877l-0.141,-0c-0.845,0 -1.653,-0.341 -2.242,-0.947c-0.589,-0.605 -0.907,-1.423 -0.883,-2.267l0.148,-5.225l-48.244,0.018c-0.844,0.001 -1.653,-0.341 -2.241,-0.946c-0.037,-0.038 -0.073,-0.076 -0.107,-0.116l-4.004,0.002c-1.732,0.001 -3.305,-0.787 -4.367,-2.06l-16.255,0.998c-0.832,0.051 -1.65,-0.233 -2.272,-0.788l-6.655,-5.938c-0.686,-0.613 -1.068,-1.496 -1.043,-2.416l0.191,-7.116c0.024,-0.877 0.415,-1.704 1.079,-2.278l6.825,-5.91c0.656,-0.569 1.519,-0.838 2.382,-0.745l15.62,1.692Zm1.864,18.497c-0.046,1.623 1.133,2.939 2.63,2.939l6.382,-0.002l-0.03,1.062l51.461,-0.019l-0.24,8.44l3.338,-0.001l-0.075,2.617c-0.082,2.905 2.027,5.262 4.709,5.261l85.792,-0.031c2.271,-0.001 4.228,-1.694 4.824,-3.977l9.36,-0.003l0.2,-7.001l6.622,-0.002l-0.175,6.149l25.438,-0.009l0.175,-6.15l6.574,-0.002l-0.175,6.15l24.823,-0.01c0.778,-0 1.428,-0.684 1.452,-1.527l0.45,-43.224c0.024,-0.843 -0.587,-1.527 -1.365,-1.526l-24.043,0.009l-0.177,6.225l-6.574,0.002l0.177,-6.225l-25.438,0.01l-0.177,6.225l-6.623,0.002l0.206,-7.223l-9.426,0.004c-0.549,-2.152 -2.354,-3.718 -4.54,-3.717l-85.792,0.032c-2.681,0.001 -4.925,2.36 -5.008,5.265l-0.077,2.702l-3.338,0.002l-0.24,8.42l-51.46,0.019l-0.02,0.69l-6.382,0.003c-1.498,0 -2.751,1.318 -2.797,2.94l-0.011,0.375l-18.25,-1.976l-6.826,5.91l-0.191,7.116l6.655,5.939l18.16,-1.115l0.022,-0.768Z" style="fill:white;"/>
            <rect x="958.709" y="837.624" width="4.88" height="21.359" style="fill:white;"/>
            <rect x="978.557" y="836.567" width="4.88" height="23.473" style="fill:white;"/>
        </g>
        <g id="Jack3" serif:id="Jack">
            <path d="M1153.97,619.844l-0.003,-6.574l-6.149,-0.175l-0.01,-25.439l6.15,0.175l-0.003,-6.622l-7,-0.199l-0.003,-9.36c-2.283,-0.596 -3.976,-2.554 -3.977,-4.825l-0.032,-85.792c-0.001,-2.681 2.357,-4.791 5.262,-4.709l2.617,0.075l-0.001,-3.338l8.44,0.24l-0.019,-51.461l1.062,0.031l-0.002,-6.383c-0.001,-1.497 1.316,-2.676 2.939,-2.629l-0.768,-0.022l-1.115,-18.161l5.939,-6.655l7.116,0.192l5.91,6.825l-1.976,18.25l0.374,0.011c1.623,0.046 2.941,1.3 2.941,2.797l0.003,6.382l0.69,0.02l0.019,51.461l8.42,0.239l0.001,3.338l2.703,0.077c2.905,0.083 5.264,2.327 5.265,5.008l0.032,85.793c0.001,2.185 -1.565,3.991 -3.717,4.539l0.003,9.426l-7.223,-0.205l0.003,6.622l6.225,0.177l0.009,25.439l-6.225,-0.178l0.003,6.574l-32.634,-0.928l38.859,1.106l0.009,24.042c0,0.778 -0.683,1.39 -1.526,1.366l-43.225,-0.45c-0.842,-0.024 -1.526,-0.675 -1.526,-1.453l-0.01,-24.822l6.15,0.175Zm0.01,26.231l33.903,0.185l-33.903,-0.185Z" style="fill:rgb(38,120,127);"/>
            <path d="M1147.69,473.203l-0,-0.141c-0,-0.844 0.341,-1.653 0.946,-2.242c0.606,-0.588 1.424,-0.907 2.268,-0.883l5.224,0.149l-0.017,-48.244c-0.001,-0.845 0.341,-1.653 0.946,-2.242c0.038,-0.037 0.076,-0.072 0.115,-0.107l-0.001,-4.003c-0.001,-1.733 0.787,-3.305 2.06,-4.368l-0.998,-16.254c-0.051,-0.833 0.232,-1.651 0.787,-2.273l5.939,-6.655c0.613,-0.686 1.496,-1.068 2.416,-1.043l7.116,0.192c0.877,0.023 1.704,0.415 2.278,1.078l5.91,6.825c0.568,0.656 0.838,1.519 0.745,2.382l-1.692,15.621c1.836,1.05 3.048,2.986 3.049,5.1l0.002,4.443c0.432,0.536 0.691,1.218 0.691,1.959l0.018,48.424l5.385,0.154c1.69,0.048 3.036,1.431 3.036,3.122l0,0.308c4.486,0.295 7.967,3.93 7.969,8.115l0.032,85.792c0.001,2.75 -1.454,5.172 -3.716,6.573l0.002,7.393c0.001,0.844 -0.341,1.653 -0.946,2.242c-0.606,0.588 -1.423,0.907 -2.267,0.883l-4.008,-0.114c-0,-0 -0,0.37 -0,0.37l3.19,0.091c1.69,0.048 3.035,1.431 3.036,3.122l0.009,25.438c0.001,0.845 -0.341,1.653 -0.946,2.242c-0.606,0.589 -1.423,0.907 -2.267,0.883l-3.01,-0.085l-0,0.321l3.19,0.091c1.69,0.048 3.035,1.432 3.036,3.122l0.009,24.043c0.001,2.469 -2.036,4.549 -4.704,4.491l-21.759,-0.226l-16.806,-0.092c-0.254,-0.001 -0.5,-0.033 -0.735,-0.091l-3.904,-0.041c-0.019,0 -0.038,-0 -0.057,-0.001c-2.583,-0.073 -4.562,-2.19 -4.562,-4.575l-0.01,-24.822c-0,-0.845 0.341,-1.653 0.947,-2.242c0.605,-0.588 1.423,-0.907 2.267,-0.883l2.935,0.083l-0,-0.321l-3.115,-0.089c-1.69,-0.048 -3.036,-1.431 -3.036,-3.122l-0.01,-25.438c0,-0.845 0.342,-1.653 0.947,-2.242c0.605,-0.589 1.423,-0.907 2.267,-0.883l2.935,0.083l-0,-0.37l-3.966,-0.113c-1.69,-0.048 -3.035,-1.431 -3.036,-3.122c0,-0 -0.003,-7.327 -0.002,-7.327c-2.407,-1.466 -3.977,-4.034 -3.978,-6.858l-0.032,-85.792c-0.001,-4.197 3.418,-7.663 7.878,-7.831Zm44.885,173.191c0.843,0.024 1.526,-0.588 1.526,-1.366l-0.009,-24.042l-6.225,-0.178l-0.003,-6.574l6.225,0.178l-0.009,-25.439l-6.225,-0.177l-0.003,-6.622l7.223,0.205l-0.003,-9.426c2.152,-0.548 3.718,-2.354 3.717,-4.539l-0.032,-85.793c-0.001,-2.681 -2.36,-4.925 -5.265,-5.008l-2.703,-0.077l-0.001,-3.338l-8.42,-0.239l-0.019,-51.461l-0.69,-0.02l-0.003,-6.382c-0,-1.497 -1.318,-2.751 -2.941,-2.797l-0.374,-0.011l1.976,-18.25l-5.91,-6.825l-7.116,-0.192l-5.939,6.655l1.115,18.161l0.768,0.022c-1.623,-0.047 -2.94,1.132 -2.939,2.629l0.002,6.383l-1.062,-0.031l0.019,51.461l-8.44,-0.24l0.001,3.338l-2.617,-0.075c-2.905,-0.082 -5.263,2.028 -5.262,4.709l0.032,85.792c0.001,2.271 1.694,4.229 3.977,4.825l0.003,9.36l7,0.199l0.003,6.622l-6.15,-0.175l0.01,25.439l6.149,0.175l0.003,6.574l-6.15,-0.175l0.01,24.822c-0,0.778 0.684,1.429 1.526,1.453l43.225,0.45Z" style="fill:white;"/>
            <path d="M1160.3,417.144l-0,4.88l21.359,-0l0,-4.88l-21.359,-0Z" style="fill:white;"/>
        </g>
        <g id="Jack4" serif:id="Jack">
            <path d="M1222.34,619.844l-0.003,-6.574l-6.149,-0.175l-0.01,-25.439l6.15,0.175l-0.003,-6.622l-7,-0.199l-0.003,-9.36c-2.283,-0.596 -3.976,-2.554 -3.977,-4.825l-0.032,-85.792c-0.001,-2.681 2.357,-4.791 5.262,-4.709l2.617,0.075l-0.001,-3.338l8.439,0.24l-0.019,-51.461l1.063,0.031l-0.002,-6.383c-0.001,-1.497 1.316,-2.676 2.938,-2.629l-0.767,-0.022l-1.115,-18.161l5.939,-6.655l7.115,0.192l5.911,6.825l-1.977,18.25l0.375,0.011c1.623,0.046 2.94,1.3 2.941,2.797l0.002,6.382l0.691,0.02l0.019,51.461l8.42,0.239l0.001,3.338l2.703,0.077c2.905,0.083 5.264,2.327 5.265,5.008l0.032,85.793c0.001,2.185 -1.565,3.991 -3.717,4.539l0.003,9.426l-7.223,-0.205l0.003,6.622l6.225,0.177l0.009,25.439l-6.225,-0.178l0.003,6.574l-32.635,-0.928l38.86,1.106l0.009,24.042c0,0.778 -0.684,1.39 -1.526,1.366l-43.225,-0.45c-0.842,-0.024 -1.526,-0.675 -1.527,-1.453l-0.009,-24.822l6.15,0.175Zm0.009,26.231l33.903,0.185l-33.903,-0.185Z" style="fill:rgb(38,120,127);"/>
            <path d="M1216.07,473.203l-0,-0.141c-0.001,-0.844 0.341,-1.653 0.946,-2.242c0.606,-0.588 1.424,-0.907 2.268,-0.883l5.224,0.149l-0.018,-48.244c0,-0.845 0.341,-1.653 0.947,-2.242c0.037,-0.037 0.076,-0.072 0.115,-0.107l-0.001,-4.003c-0.001,-1.733 0.787,-3.305 2.06,-4.368l-0.998,-16.254c-0.051,-0.833 0.232,-1.651 0.787,-2.273l5.939,-6.655c0.612,-0.686 1.496,-1.068 2.416,-1.043l7.116,0.192c0.877,0.023 1.703,0.415 2.278,1.078l5.91,6.825c0.568,0.656 0.838,1.519 0.744,2.382l-1.691,15.621c1.836,1.05 3.048,2.986 3.049,5.1l0.002,4.443c0.432,0.536 0.69,1.218 0.691,1.959l0.018,48.424l5.385,0.154c1.69,0.048 3.035,1.431 3.036,3.122l0,0.308c4.486,0.295 7.967,3.93 7.969,8.115l0.032,85.792c0.001,2.75 -1.454,5.172 -3.717,6.573l0.003,7.393c0.001,0.844 -0.341,1.653 -0.946,2.242c-0.606,0.588 -1.424,0.907 -2.268,0.883l-4.008,-0.114c0,-0 0.001,0.37 0.001,0.37l3.19,0.091c1.69,0.048 3.035,1.431 3.036,3.122l0.009,25.438c0.001,0.845 -0.341,1.653 -0.946,2.242c-0.606,0.589 -1.424,0.907 -2.268,0.883l-3.01,-0.085l0,0.321l3.191,0.091c1.69,0.048 3.035,1.432 3.036,3.122l0.009,24.043c0.001,2.469 -2.036,4.549 -4.704,4.491l-21.759,-0.226l-16.807,-0.092l0.001,-0.083l-4.639,-0.049c-0.019,0 -0.038,-0 -0.057,-0.001c-2.583,-0.073 -4.562,-2.19 -4.563,-4.575l-0.009,-24.822c-0,-0.845 0.341,-1.653 0.947,-2.242c0.605,-0.588 1.423,-0.907 2.267,-0.883l2.934,0.083l0,-0.321l-3.114,-0.089c-1.69,-0.048 -3.036,-1.431 -3.036,-3.122l-0.01,-25.438c-0,-0.845 0.341,-1.653 0.947,-2.242c0.605,-0.589 1.423,-0.907 2.267,-0.883l2.935,0.083l-0.001,-0.37l-3.965,-0.113c-1.69,-0.048 -3.035,-1.431 -3.036,-3.122c0,-0 -0.003,-7.327 -0.002,-7.327c-2.408,-1.466 -3.977,-4.034 -3.978,-6.858l-0.032,-85.792c-0.001,-4.197 3.418,-7.663 7.878,-7.831Zm44.885,173.191c0.842,0.024 1.526,-0.588 1.526,-1.366l-0.009,-24.042l-6.225,-0.178l-0.003,-6.574l6.225,0.178l-0.009,-25.439l-6.225,-0.177l-0.003,-6.622l7.223,0.205l-0.003,-9.426c2.152,-0.548 3.718,-2.354 3.717,-4.539l-0.032,-85.793c-0.001,-2.681 -2.36,-4.925 -5.265,-5.008l-2.703,-0.077l-0.001,-3.338l-8.42,-0.239l-0.019,-51.461l-0.691,-0.02l-0.002,-6.382c-0.001,-1.497 -1.318,-2.751 -2.941,-2.797l-0.375,-0.011l1.977,-18.25l-5.911,-6.825l-7.115,-0.192l-5.939,6.655l1.115,18.161l0.767,0.022c-1.622,-0.047 -2.939,1.132 -2.938,2.629l0.002,6.383l-1.063,-0.031l0.019,51.461l-8.439,-0.24l0.001,3.338l-2.617,-0.075c-2.905,-0.082 -5.263,2.028 -5.262,4.709l0.032,85.792c0.001,2.271 1.694,4.229 3.977,4.825l0.003,9.36l7,0.199l0.003,6.622l-6.15,-0.175l0.01,25.439l6.149,0.175l0.003,6.574l-6.15,-0.175l0.009,24.822c0.001,0.778 0.685,1.429 1.527,1.453l43.225,0.45Z" style="fill:white;"/>
            <path d="M1228.68,417.144l-0,4.88l21.359,-0l-0,-4.88l-21.359,-0Z" style="fill:white;"/>
        </g>
    </g>
</svg>
